<?xml version="1.0" encoding="utf-8"?>
<!-- Generator: Adobe Illustrator 16.0.0, SVG Export Plug-In . SVG Version: 6.00 Build 0)  -->
<!DOCTYPE svg PUBLIC "-//W3C//DTD SVG 1.1//EN" "http://www.w3.org/Graphics/SVG/1.1/DTD/svg11.dtd">
<svg version="1.1" id="Calque_1" xmlns="http://www.w3.org/2000/svg" xmlns:xlink="http://www.w3.org/1999/xlink" x="0px" y="0px"
	 width="1218.9px" height="1644.09px" viewBox="0 0 1218.9 1644.09" enable-background="new 0 0 1218.9 1644.09"
	 xml:space="preserve">
<g>
	<path fill-rule="evenodd" clip-rule="evenodd" fill="#314F51" d="M645.095,809.728c-0.229,0.002-0.456,0.003-0.683,0.005
		c-1.324-5.595-0.118-11.213-1.124-16.826c-0.107,0.252-0.215,0.503-0.324,0.753c0,4.975,0,9.949,0,14.923
		c-0.399,0-0.801,0.001-1.201,0.001c0-4.973,0-9.95,0-14.924c-0.002-0.397-0.003-0.795-0.003-1.193
		c-0.494-0.068-0.987-0.136-1.481-0.204c0,2.229,0,4.458,0,6.686c-0.257,0.002-0.512,0.003-0.767,0.004c0-1.544,0-3.087,0-4.631
		c-0.223,0.001-0.446,0.001-0.67,0.001c0,5.298,0,10.595,0,15.893c-0.284,0.001-0.573,0.001-0.858,0.002c0-3.311,0-6.622,0-9.933
		l-0.341-0.029l-0.343,0.027c0,4.5,0,9,0,13.5c-0.104,0-0.209,0-0.315,0c-0.45-4.57-0.902-9.139-1.352-13.709h-0.334
		c0,3.313,0,6.626,0,9.939c-0.392,0-0.782,0-1.174,0c-0.173-5.831-0.346-11.663-0.517-17.494c-0.227,0.4-0.626,0.799-0.652,1.201
		c-0.286,4.314-0.511,8.629-0.763,12.943c-0.013,0.188-0.139,0.376-0.712,0.562c0-2.03,0-4.06,0-6.089
		c-1.308,2.712,0.037,5.468-1.23,8.17c-0.582-0.006-1.163-0.011-1.746-0.017c0-5.676,0-11.354,0-17.032
		c-0.263,0.071-0.525,0.138-0.789,0.209c-0.162,4.253-0.326,8.507-0.489,12.758c-0.257,0.178-0.512,0.354-0.771,0.531
		c-0.025,0.297-0.053,0.594-0.079,0.892c0,2.338,0,4.676,0,7.015c-0.177-0.001-0.354-0.001-0.531-0.002c0-2.339,0-4.68,0-7.02
		c-0.072-3.137-0.146-6.276-0.216-9.415c-0.289-0.016-0.575-0.031-0.863-0.047c-0.243,1.44-0.487,2.88-0.732,4.321
		c-0.152,0-0.303,0-0.456,0.001c0-2.227,0-4.453,0-6.68c-0.233,0-0.469,0-0.699,0c0,5.926,0,11.853,0,17.779
		c-2.384-3.249-1.37-6.538-1.546-9.811c-0.174-3.265-0.07-6.531-0.089-9.795c-0.211,0.36-0.598,0.723-0.604,1.083
		c-0.07,3.398-0.072,6.797-0.096,10.195c0,1.049,0,2.097,0,3.146c-0.184,0.004-0.367,0.008-0.549,0.01
		c-0.12-0.483-0.24-0.966-0.36-1.449c-0.154-0.002-0.311-0.004-0.465-0.005c0,0.922,0,1.842,0,2.765
		c-0.317-0.002-0.635-0.006-0.953-0.01c0.252-1.636,0.505-3.271,0.755-4.908c-0.019-2.272-0.04-4.543-0.06-6.814h-0.206
		l-0.201-0.016c-0.345-0.392-0.688-0.783-1.035-1.174c-0.375-0.001-0.751-0.001-1.124-0.003c0,1.075,0,2.148,0,3.222
		c-0.181,0.002-0.359,0.003-0.541,0.005c-0.177-0.2-0.355-0.401-0.532-0.603c-0.144,0.003-0.288,0.004-0.434,0.008
		c0,4.087,0,8.175,0,12.263c-0.369,0-0.738,0-1.108,0c0-4.063,0-8.127,0-12.19c-0.361,0-0.721,0-1.081,0c0,4.625,0,9.249,0,13.874
		c-2.445-5.868-0.942-11.77-2.3-17.65c0,3.019,0,6.037,0,9.054c0,2.43,0,4.859,0,7.291c-0.255,0.001-0.513,0.002-0.769,0.003
		c0-2.411,0-4.82,0-7.23c-0.175-3.715-0.352-7.43-0.527-11.146c-0.129-0.13-0.261-0.261-0.475-0.476
		c-0.21,0.215-0.34,0.346-0.468,0.476c0,4.276,0,8.553,0,12.829c-0.18,0.001-0.359,0.002-0.536,0.002c0-2.923,0-5.847,0-8.771
		c-0.351,0-0.701-0.001-1.051-0.001c0,7.71,0,15.42,0,23.131c-0.376,0.001-0.751,0.002-1.122,0.005c0-2.064,0-4.129,0-6.193
		c-0.252,0-0.503-0.001-0.755-0.001c0,0.987,0,1.975,0,2.963c-0.364,0-0.73,0-1.095,0.001c0-5.941,0-11.882,0-17.824
		c-0.265,0-0.529,0-0.792,0c-0.354,6.062-0.71,12.125-1.064,18.188c-0.49,0.232-0.979,0.466-1.47,0.7
		c0.002,2.989,0.003,5.98,0.005,8.97c0.485,0.158,0.971,0.316,1.455,0.475c0.242,3.613,0.507,7.225,0.722,10.836
		c0.067,1.134,0.011,2.268,0.596,3.401c0-4.42,0-8.839,0-13.258c0.368-0.004,0.736-0.009,1.103-0.013c0,1.762,0,3.521,0,5.281
		c0.395,0,0.788,0,1.182,0c0-3.05,0-6.1,0-9.149c0.25,0,0.501,0,0.751,0c0,0.363-0.014,0.726,0.002,1.089
		c0.242,5.023,0.311,10.049,0.815,15.069c0.219,2.194,1.336,4.38,2.099,6.733c0.27-2.348,0.525-4.551,0.78-6.756
		c0-2.777,0-5.555,0-8.33c0.204,0,0.408,0,0.614,0c0,2.775,0,5.553,0,8.327c0.076,0.415,0.154,0.829,0.231,1.243
		c0.293-0.002,0.586-0.003,0.878-0.004c0-2.717,0-5.435,0-8.15c0.331,0,0.658-0.002,0.986-0.002c0,2.332,0,4.664,0,6.998
		c0.26,0.002,0.52,0.004,0.781,0.007c0.391-1.485,0.779-2.968,1.258-4.785c0.871,4.062,1.673,7.793,2.476,11.522
		c0.263-0.406,0.717-0.811,0.76-1.219c0.448-4.346,0.833-8.69,1.219-12.873c3.042,5.115,0.768,10.483,2.309,15.801
		c0-6.33,0-12.66,0-18.993c0.36,0.001,0.725,0.001,1.084,0.001c0,6.09,0,12.178,0,18.268c0.349,0,0.697,0,1.046,0.002
		c0-3.021,0-6.045,0-9.066c0.284-0.002,0.565-0.002,0.852-0.004c0,1.598,0,3.195,0,4.791c0,1.586,0,3.173,0,4.759
		c0.583,0.001,1.169,0.001,1.753,0.001c0-5.563,0-11.125,0-16.689c0.551-0.001,1.104-0.003,1.654-0.003
		c0,4.437-0.004,8.875,0.007,13.31c0.001,0.512,0.097,1.021,0.148,1.531c0.232-0.031,0.464-0.066,0.695-0.1
		c0.043-1.201,0.022-2.404,0.16-3.604c0.041-0.361,0.515-0.72,0.788-1.078c0.007-1.028,0.015-2.058,0.023-3.085
		c0-1.908,0-3.818,0-5.727c0.058,0,0.118,0,0.176,0c0.333,1.907,0.666,3.816,0.997,5.724c0,2.115,0,4.229,0,6.343
		c0.265,0.001,0.529,0.001,0.792,0.002c0-4.166,0-8.333,0-12.5c0.207,0,0.415,0,0.623,0c0.37,5.307,0.738,10.61,1.11,15.916
		c0.023-0.002,0.048-0.002,0.069-0.003c0.444-4.81,0.886-9.618,1.328-14.429c0-1.831,0-3.662,0-5.494c0.122,0,0.244,0,0.368,0
		c0,1.832,0,3.663,0,5.494c0.103,2.334,0.201,4.668,0.305,7.002c0.159,0.004,0.32,0.004,0.479,0
		c0.422-3.164,0.844-6.328,1.266-9.492c0.08,0,0.161-0.002,0.241-0.004c0,4.295,0,8.588,0,12.883c0.225,0,0.451,0,0.679,0
		c0-3.959,0-7.92,0-11.878c0.367-0.003,0.734-0.003,1.101-0.004c0,4.753,0,9.506,0,14.26c0.371,0.001,0.739,0.005,1.109,0.005
		c0-0.83,0-1.657,0-2.487c0.246-0.003,0.49-0.005,0.733-0.009c0,0.844,0,1.688,0,2.531c0.379-0.002,0.757-0.004,1.135-0.006
		c0-2.354,0-4.71,0-7.064c0.36,0,0.725,0.002,1.088,0.002c0,1.713,0,3.428,0,5.142c0.37,0.001,0.741,0.001,1.112,0.003
		c0-3.672,0-7.343,0-11.014c0.309,0,0.616,0,0.926,0V809.728z"/>
	<path opacity="0.6" fill-rule="evenodd" clip-rule="evenodd" fill="#396E75" d="M608.619,795.676
		c-1.016,5.571,0.206,11.158-2.111,16.715c0-4.625,0-9.248,0-13.874c-0.36,0-0.72,0-1.081,0c0,4.063,0,8.127,0,12.19
		c-0.37,0-0.739,0-1.108,0c0-4.088,0-8.176,0-12.263c-0.145-0.004-0.289-0.005-0.433-0.008c-0.177,0.202-0.355,0.403-0.531,0.603
		c-0.182-0.001-0.362-0.002-0.542-0.005c0-1.074,0-2.147,0-3.222c-0.374,0.002-0.749,0.002-1.124,0.003
		c-0.347,0.391-0.691,0.782-1.036,1.174l-0.202,0.016h-0.204c-0.02,2.271-0.042,4.542-0.061,6.814
		c0.251,1.636,0.504,3.271,0.756,4.908c-0.316,0.004-0.635,0.008-0.952,0.01c0-0.922,0-1.843,0-2.765
		c-0.155,0.001-0.312,0.003-0.466,0.005c-0.12,0.483-0.241,0.966-0.36,1.449c-0.182-0.002-0.366-0.006-0.55-0.01
		c0-1.048,0-2.096,0-3.146c-0.021-3.398-0.025-6.796-0.096-10.195c-0.007-0.36-0.394-0.723-0.604-1.083
		c-0.019,3.265,0.085,6.531-0.087,9.795c-0.178,3.272,0.837,6.562-1.547,9.811c0-5.926,0-11.853,0-17.779c-0.231,0-0.466,0-0.699,0
		c0,2.227,0,4.454,0,6.68c-0.153-0.001-0.305-0.001-0.457-0.001c-0.245-1.441-0.489-2.881-0.731-4.321
		c-0.288,0.016-0.575,0.031-0.864,0.047c-0.07,3.139-0.143,6.277-0.215,9.415c0,2.34,0,4.68,0,7.02c-0.176,0-0.354,0-0.532,0.002
		c0-2.338,0-4.677,0-7.015c-0.026-0.297-0.054-0.594-0.079-0.892c-0.259-0.177-0.514-0.354-0.77-0.531
		c-0.164-4.251-0.327-8.504-0.49-12.758c-0.263-0.071-0.525-0.138-0.789-0.209c0,5.678,0,11.355,0,17.032
		c-0.582,0.006-1.163,0.011-1.744,0.017c-1.27-2.703,0.077-5.458-1.231-8.17c0,2.03,0,4.06,0,6.089
		c-0.572-0.186-0.7-0.375-0.712-0.562c-0.253-4.314-0.478-8.629-0.763-12.943c-0.026-0.402-0.426-0.801-0.652-1.201
		c-0.173,5.831-0.344,11.663-0.517,17.494c-0.392,0-0.782,0-1.175,0c0-3.313,0-6.625,0-9.939h-0.334
		c-0.45,4.57-0.9,9.139-1.351,13.709c-0.106,0-0.211,0-0.315,0c0-4.5,0-9,0-13.5l-0.343-0.027l-0.341,0.029c0,3.311,0,6.622,0,9.933
		c-0.286-0.001-0.574-0.001-0.859-0.002c0-5.297,0-10.594,0-15.893c-0.224,0-0.447,0-0.67-0.001c0,1.544,0,3.086,0,4.631
		c-0.255-0.001-0.51-0.002-0.766-0.004c0-2.228,0-4.457,0-6.686c-0.493,0.068-0.987,0.136-1.481,0.204
		c0,0.398-0.002,0.796-0.003,1.193c0,4.975,0,9.951,0,14.924c-0.401,0-0.801-0.001-1.203-0.001c0-4.974,0-9.948,0-14.923
		c-0.107-0.25-0.215-0.501-0.323-0.753c-1.005,5.613,0.202,11.231-1.123,16.826c-0.227-0.002-0.453-0.003-0.683-0.005v24.463
		c0.309,0,0.616,0,0.925,0c0,3.671,0,7.342,0,11.014c0.373-0.002,0.743-0.002,1.113-0.003c0-1.714,0-3.429,0-5.142
		c0.364,0,0.726-0.002,1.088-0.002c0,2.354,0,4.71,0,7.064c0.378,0.002,0.756,0.004,1.135,0.006c0-0.844,0-1.688,0-2.531
		c0.243,0.004,0.487,0.006,0.732,0.009c0,0.83,0,1.657,0,2.487c0.371,0,0.739-0.004,1.109-0.005c0-4.754,0-9.507,0-14.26
		c0.367,0.001,0.735,0.001,1.103,0.004c0,3.958,0,7.919,0,11.878c0.227,0,0.452,0,0.678,0c0-4.295,0-8.588,0-12.883
		c0.081,0.002,0.16,0.004,0.241,0.004c0.421,3.164,0.843,6.328,1.265,9.492c0.159,0.004,0.319,0.004,0.479,0
		c0.103-2.334,0.202-4.668,0.304-7.002c0-1.831,0-3.662,0-5.494c0.124,0,0.246,0,0.368,0c0,1.832,0,3.663,0,5.494
		c0.443,4.811,0.885,9.619,1.328,14.429c0.024,0.001,0.047,0.001,0.069,0.003c0.371-5.306,0.741-10.609,1.112-15.916
		c0.206,0,0.416,0,0.621,0c0,4.167,0,8.334,0,12.5c0.265-0.001,0.529-0.001,0.792-0.002c0-2.114,0-4.228,0-6.343
		c0.331-1.907,0.664-3.816,0.998-5.724c0.058,0,0.117,0,0.176,0c0,1.908,0,3.818,0,5.727c0.009,1.027,0.016,2.057,0.023,3.085
		c0.274,0.358,0.746,0.717,0.788,1.078c0.138,1.2,0.118,2.403,0.158,3.604c0.233,0.033,0.464,0.068,0.698,0.1
		c0.05-0.51,0.146-1.02,0.147-1.531c0.011-4.435,0.007-8.873,0.007-13.31c0.551,0,1.104,0.002,1.652,0.003
		c0,5.564,0,11.127,0,16.689c0.586,0,1.172,0,1.755-0.001c0-1.586,0-3.173,0-4.759c0-1.596,0-3.193,0-4.791
		c0.285,0.002,0.568,0.002,0.852,0.004c0,3.021,0,6.045,0,9.066c0.349-0.002,0.696-0.002,1.046-0.002c0-6.09,0-12.178,0-18.268
		c0.361,0,0.723,0,1.083-0.001c0,6.333,0,12.663,0,18.993c1.541-5.317-0.731-10.686,2.31-15.801
		c0.387,4.183,0.77,8.527,1.219,12.873c0.042,0.408,0.496,0.813,0.76,1.219c0.801-3.729,1.604-7.461,2.476-11.522
		c0.478,1.817,0.867,3.3,1.259,4.785c0.26-0.003,0.52-0.005,0.781-0.007c0-2.334,0-4.666,0-6.998c0.327,0,0.653,0.002,0.985,0.002
		c0,2.716,0,5.434,0,8.15c0.291,0.001,0.584,0.002,0.878,0.004c0.014-0.076,0.028-0.152,0.042-0.229V795.676z"/>
	<polygon fill="#ACDDDA" points="609.579,857.496 590.875,814.962 599.319,814.962 599.319,786.466 609.579,786.466 	"/>
</g>
</svg>
