<?xml version="1.0" encoding="utf-8"?>
<!-- Generator: Adobe Illustrator 16.0.0, SVG Export Plug-In . SVG Version: 6.00 Build 0)  -->
<!DOCTYPE svg PUBLIC "-//W3C//DTD SVG 1.1//EN" "http://www.w3.org/Graphics/SVG/1.1/DTD/svg11.dtd">
<svg version="1.1" id="Calque_1" xmlns="http://www.w3.org/2000/svg" xmlns:xlink="http://www.w3.org/1999/xlink" x="0px" y="0px"
	 width="1218.9px" height="1644.09px" viewBox="0 0 1218.9 1644.09" enable-background="new 0 0 1218.9 1644.09"
	 xml:space="preserve">
<g>
	<g>
		<path fill-rule="evenodd" clip-rule="evenodd" fill="#314F51" d="M613.254,790.576c0,2.369,0,4.739,0,7.108
			c-0.337,0.002-0.672,0.004-1.008,0.006c-0.733-1.128,0.044-2.278-0.711-3.41c0,0.848,0,1.695,0,2.542
			c-0.33-0.077-0.404-0.156-0.411-0.234c-0.146-1.801-0.275-3.601-0.439-5.401c-0.016-0.168-0.246-0.335-0.377-0.501
			c-0.1,2.433-0.199,4.866-0.298,7.3c-0.227,0-0.451,0-0.678,0c0-1.383,0-2.765,0-4.148h-0.194
			c-0.021,0.153-0.041,0.306-0.062,0.459v-2.592c-0.736,2.425,0.089,4.857-1.307,7.278c0-1.93,0-3.86,0-5.791
			c-0.208,0-0.415,0-0.625,0c0,1.696,0,3.392,0,5.087c-0.213,0-0.426,0-0.639,0c0-1.706,0-3.412,0-5.117
			c-0.084-0.002-0.167-0.003-0.25-0.004c-0.103,0.084-0.206,0.168-0.307,0.252c-0.105-0.001-0.209-0.001-0.313-0.001
			c0-0.449,0-0.896,0-1.345c-0.215,0.001-0.433,0.001-0.649,0.001c-0.199,0.163-0.398,0.326-0.598,0.49l-0.115,0.007h-0.119
			c-0.013,0.948-0.024,1.895-0.034,2.843c0.145,0.684,0.29,1.366,0.436,2.048c-0.184,0.002-0.366,0.004-0.55,0.005
			c0-0.385,0-0.77,0-1.153c-0.091,0-0.181,0.001-0.269,0.002c-0.07,0.202-0.14,0.403-0.209,0.604
			c-0.105-0.001-0.21-0.002-0.316-0.004c0-0.437,0-0.875,0-1.313c-0.014-1.418-0.015-2.837-0.057-4.255
			c-0.003-0.15-0.227-0.301-0.349-0.452c-0.01,1.362,0.05,2.725-0.05,4.087c-0.103,1.366,0.482,2.739-0.894,4.095
			c0-2.474,0-4.947,0-7.42c-0.133,0-0.269,0-0.403,0c0,0.93,0,1.859,0,2.788c-0.089,0-0.177,0-0.265-0.001
			c-0.141-0.601-0.281-1.202-0.422-1.803c-0.166,0.006-0.332,0.013-0.498,0.02c-0.041,1.31-0.083,2.62-0.124,3.929
			c0,0.976,0,1.953,0,2.929c-0.103,0-0.205,0-0.309,0.001c0-0.977,0-1.952,0-2.927c-0.015-0.125-0.029-0.249-0.045-0.373
			c-0.149-0.074-0.297-0.147-0.443-0.221c-0.095-1.775-0.19-3.549-0.284-5.324c-0.151-0.03-0.302-0.058-0.455-0.088
			c0,2.369,0,4.74,0,7.108c-0.336,0.002-0.672,0.005-1.007,0.007c-0.732-1.128,0.044-2.278-0.712-3.41c0,0.848,0,1.694,0,2.542
			c-0.33-0.077-0.404-0.156-0.41-0.235c-0.146-1.8-0.275-3.601-0.439-5.401c-0.016-0.168-0.247-0.334-0.378-0.501
			c-0.1,2.434-0.198,4.868-0.299,7.3c-0.226,0-0.451,0-0.677,0c0-1.382,0-2.765,0-4.147H594.5c-0.26,1.907-0.521,3.814-0.779,5.72
			c-0.063,0-0.122,0-0.182,0c0-1.876,0-3.755,0-5.633l-0.198-0.01l-0.197,0.011c0,1.382,0,2.763,0,4.146
			c-0.166,0-0.331,0-0.495-0.001c0-2.211,0-4.421,0-6.632c-0.13,0-0.26,0-0.388-0.001c0,0.645,0,1.289,0,1.933
			c-0.147,0-0.294-0.001-0.443-0.001c0-0.93,0-1.86,0-2.791c-0.284,0.028-0.569,0.057-0.854,0.085c0,0.166-0.001,0.332-0.002,0.498
			c0,2.076,0,4.152,0,6.229c-0.231,0-0.463-0.001-0.693-0.001c0-2.076,0-4.151,0-6.228c-0.063-0.104-0.125-0.21-0.188-0.314
			c-0.533,2.155,0,4.312-0.505,6.462v15.363c0.212,0,0.427,0,0.64,0c0-0.716,0-1.432,0-2.147c0.209,0,0.418,0,0.627,0
			c0,0.982,0,1.966,0,2.948c0.219,0.001,0.437,0.001,0.656,0.002c0-0.352,0-0.704,0-1.056c0.141,0.001,0.281,0.002,0.423,0.004
			c0,0.346,0,0.691,0,1.037c0.214,0,0.427-0.001,0.641-0.002c0-1.983,0-3.967,0-5.951c0.212,0,0.424,0,0.636,0.001
			c0,1.652,0,3.305,0,4.957c0.131,0,0.261,0,0.393,0c0-1.792,0-3.584,0-5.376c0.046,0,0.091,0,0.139,0.001
			c0.242,1.32,0.487,2.641,0.729,3.961c0.092,0.002,0.185,0.002,0.276,0c0.06-0.974,0.117-1.948,0.176-2.922
			c0-0.764,0-1.528,0-2.292c0.07,0,0.142,0,0.214,0c0,0.764,0,1.528,0,2.293c0.255,2.006,0.51,4.013,0.767,6.021
			c0.013,0,0.026,0,0.039,0c0.215-2.214,0.428-4.428,0.642-6.642c0.121,0,0.239,0,0.359,0c0,1.739,0,3.478,0,5.217
			c0.151-0.001,0.305-0.001,0.458-0.001c0-0.883,0-1.765,0-2.647c0.191-0.796,0.383-1.592,0.576-2.389c0.033,0,0.066,0,0.101,0
			c0,0.797,0,1.593,0,2.39c0.005,0.429,0.009,0.858,0.014,1.288c0.158,0.15,0.431,0.299,0.454,0.451
			c0.08,0.5,0.068,1.002,0.093,1.504c0.134,0.014,0.267,0.028,0.402,0.042c0.029-0.213,0.084-0.425,0.086-0.639
			c0.006-1.852,0.004-3.704,0.004-5.555c0.316,0,0.636,0.001,0.954,0.001c0,2.322,0,4.644,0,6.965c0.338,0,0.676,0,1.013-0.001
			c0-0.662,0-1.324,0-1.986c0-0.666,0-1.332,0-1.999c0.163,0.001,0.327,0.001,0.491,0.002c0,1.261,0,2.522,0,3.783
			c0.2,0,0.401,0,0.604,0c0-2.542,0-5.083,0-7.625c0.209,0,0.418,0,0.625,0c0,2.642,0,5.284,0,7.926
			c0.891-2.219-0.423-4.459,1.334-6.594c0.223,1.746,0.444,3.559,0.704,5.372c0.025,0.17,0.287,0.339,0.438,0.508
			c0.463-1.556,0.925-3.113,1.43-4.808c0.275,0.757,0.5,1.377,0.725,1.997c0.151-0.001,0.302-0.002,0.452-0.003
			c0-0.974,0-1.947,0-2.921c0.189,0,0.378,0.001,0.569,0.001c0,1.134,0,2.268,0,3.401c0.168,0,0.338,0.001,0.507,0.001
			c0.037-0.145,0.074-0.29,0.112-0.434v0.176c0.006,0.038,0.013,0.075,0.021,0.113c0.092,0.002,0.184,0.002,0.276,0
			c0.059-0.974,0.117-1.948,0.176-2.922c0-0.763,0-1.528,0-2.293c0.071,0,0.142,0,0.213,0c0,0.765,0,1.53,0,2.293
			c0.255,2.007,0.511,4.014,0.767,6.021c0.014,0.001,0.026,0.001,0.04,0.002c0.214-2.214,0.427-4.428,0.642-6.642
			c0.119,0,0.24,0,0.358,0c0,1.739,0,3.477,0,5.216c0.153,0,0.306,0,0.457-0.001c0-0.881,0-1.764,0-2.647
			c0.191-0.796,0.384-1.592,0.577-2.388c0.033,0,0.067,0,0.102,0c0,0.796,0,1.593,0,2.389c0.004,0.43,0.009,0.859,0.013,1.289
			c0.158,0.149,0.431,0.299,0.455,0.45c0.079,0.501,0.067,1.002,0.092,1.504c0.04,0.004,0.081,0.008,0.121,0.013V790.6
			C613.341,790.592,613.298,790.583,613.254,790.576z"/>
		<path opacity="0.6" fill-rule="evenodd" clip-rule="evenodd" fill="#396E75" d="M589.372,793.954
			c-0.103,0.084-0.206,0.168-0.307,0.252c-0.105-0.001-0.21-0.001-0.313-0.002c0-0.449,0-0.896,0-1.345
			c-0.215,0.001-0.433,0.001-0.649,0.001c-0.199,0.163-0.399,0.326-0.599,0.489l-0.115,0.007h-0.118
			c-0.012,0.948-0.024,1.895-0.034,2.843c0.144,0.683,0.29,1.366,0.436,2.048c-0.183,0.002-0.366,0.004-0.549,0.005
			c0-0.385,0-0.769,0-1.154c-0.091,0-0.181,0.001-0.27,0.002c-0.07,0.201-0.139,0.402-0.208,0.604
			c-0.105-0.001-0.211-0.002-0.317-0.004c0-0.438,0-0.875,0-1.313c-0.013-1.418-0.015-2.836-0.056-4.255
			c-0.003-0.149-0.228-0.301-0.35-0.452c-0.01,1.363,0.05,2.726-0.05,4.088c-0.103,1.366,0.483,2.739-0.894,4.095
			c0-2.473,0-4.947,0-7.42c-0.133,0-0.269,0-0.404,0c0,0.93,0,1.859,0,2.788c-0.088,0-0.174,0-0.264-0.001
			c-0.141-0.601-0.281-1.202-0.422-1.803c-0.166,0.006-0.332,0.013-0.499,0.02c-0.04,1.31-0.082,2.62-0.123,3.928
			c0,0.977,0,1.953,0,2.929c-0.102,0-0.205,0-0.309,0.001c0-0.977,0-1.952,0-2.928c-0.015-0.125-0.03-0.248-0.045-0.373
			c-0.148-0.073-0.296-0.146-0.443-0.221c-0.095-1.775-0.19-3.549-0.284-5.324c-0.15-0.03-0.302-0.058-0.454-0.088
			c0,2.369,0,4.739,0,7.108c-0.337,0.003-0.673,0.005-1.008,0.007c-0.128-0.196-0.199-0.393-0.251-0.589v15.626
			c0.01,0,0.021,0,0.03,0c0-0.883,0-1.764,0-2.647c0.191-0.796,0.384-1.592,0.577-2.389c0.032,0,0.066,0,0.101,0
			c0,0.797,0,1.593,0,2.39c0.006,0.429,0.009,0.858,0.014,1.287c0.158,0.151,0.431,0.299,0.455,0.451
			c0.079,0.5,0.067,1.002,0.092,1.504c0.134,0.014,0.268,0.027,0.402,0.041c0.029-0.213,0.084-0.425,0.085-0.638
			c0.007-1.851,0.005-3.704,0.005-5.555c0.316,0,0.637,0.001,0.953,0.001c0,2.323,0,4.644,0,6.966c0.339,0,0.677,0,1.014-0.001
			c0-0.661,0-1.323,0-1.986c0-0.666,0-1.333,0-1.999c0.163,0.001,0.328,0.001,0.491,0.002c0,1.261,0,2.522,0,3.783
			c0.201,0,0.401,0,0.604,0c0-2.542,0-5.083,0-7.624c0.209,0,0.418,0,0.626,0c0,2.642,0,5.284,0,7.926
			c0.89-2.219-0.424-4.459,1.333-6.594c0.225,1.745,0.445,3.559,0.704,5.372c0.025,0.17,0.287,0.339,0.438,0.509
			c0.385-1.292,0.771-2.589,1.178-3.962v-16.405C589.507,793.956,589.439,793.955,589.372,793.954z"/>
		<path opacity="0.6" fill-rule="evenodd" clip-rule="evenodd" fill="#396E75" d="M640.054,798.13
			c-0.142,0.313-0.345,0.624-0.66,0.936c0-2.474,0-4.946,0-7.419c-0.133,0-0.269,0-0.403,0c0,0.929,0,1.858,0,2.788
			c-0.088-0.001-0.175-0.001-0.264-0.001c-0.142-0.601-0.282-1.203-0.423-1.804c-0.166,0.007-0.332,0.013-0.498,0.02
			c-0.041,1.31-0.083,2.62-0.123,3.929c0,0.977,0,1.954,0,2.93c-0.103,0-0.206,0-0.31,0c0-0.976,0-1.951,0-2.928
			c-0.014-0.124-0.029-0.247-0.045-0.371c-0.148-0.074-0.296-0.148-0.443-0.222c-0.095-1.774-0.19-3.549-0.283-5.324
			c-0.151-0.03-0.304-0.058-0.455-0.087c0,2.369,0,4.739,0,7.108c-0.337,0.002-0.673,0.004-1.008,0.006
			c-0.732-1.128,0.044-2.278-0.712-3.41c0,0.848,0,1.695,0,2.542c-0.33-0.077-0.403-0.156-0.41-0.234
			c-0.146-1.801-0.275-3.601-0.44-5.401c-0.015-0.168-0.246-0.335-0.377-0.501c-0.099,2.433-0.197,4.866-0.298,7.3
			c-0.226,0-0.45,0-0.677,0c0-1.383,0-2.765,0-4.148h-0.194c-0.021,0.153-0.041,0.306-0.063,0.459v-2.592
			c-0.734,2.425,0.089,4.857-1.306,7.278c0-1.93,0-3.86,0-5.791c-0.209,0-0.415,0-0.624,0c0,1.696,0,3.392,0,5.087
			c-0.214,0-0.428,0-0.64,0c0-1.706,0-3.412,0-5.117c-0.085-0.002-0.167-0.003-0.25-0.004c-0.102,0.084-0.206,0.168-0.308,0.252
			c-0.105-0.001-0.208-0.001-0.313-0.001c0-0.449,0-0.896,0-1.345c-0.215,0.001-0.432,0.001-0.649,0.001
			c-0.199,0.163-0.398,0.326-0.599,0.49l-0.114,0.007h-0.12c-0.012,0.948-0.022,1.895-0.033,2.843
			c0.145,0.684,0.29,1.366,0.436,2.048c-0.185,0.002-0.367,0.004-0.551,0.005c0-0.385,0-0.77,0-1.153
			c-0.09,0-0.18,0.001-0.268,0.002c-0.07,0.202-0.14,0.403-0.21,0.604c-0.105-0.001-0.209-0.002-0.316-0.004
			c0-0.437,0-0.875,0-1.313c-0.013-1.418-0.014-2.837-0.055-4.255c-0.005-0.15-0.228-0.301-0.35-0.452
			c-0.01,1.362,0.05,2.725-0.051,4.087c-0.102,1.366,0.482,2.739-0.893,4.095c0-2.474,0-4.947,0-7.42c-0.134,0-0.269,0-0.403,0
			c0,0.93,0,1.859,0,2.788c-0.088,0-0.176,0-0.264-0.001c-0.141-0.601-0.281-1.202-0.423-1.803c-0.165,0.006-0.332,0.013-0.499,0.02
			c-0.041,1.31-0.081,2.62-0.123,3.929c0,0.976,0,1.953,0,2.929c-0.104,0-0.204,0-0.308,0.001c0-0.977,0-1.952,0-2.927
			c-0.016-0.125-0.031-0.249-0.046-0.373c-0.149-0.074-0.297-0.147-0.443-0.221c-0.095-1.775-0.189-3.549-0.284-5.324
			c-0.15-0.03-0.303-0.058-0.455-0.088c0,2.369,0,4.74,0,7.108c-0.336,0.002-0.671,0.005-1.007,0.007
			c-0.733-1.128,0.045-2.278-0.711-3.41c0,0.848,0,1.694,0,2.542c-0.331-0.077-0.405-0.156-0.411-0.235
			c-0.146-1.8-0.275-3.601-0.439-5.401c-0.017-0.168-0.246-0.334-0.378-0.501c-0.099,2.434-0.198,4.868-0.299,7.3
			c-0.226,0-0.451,0-0.677,0c0-1.382,0-2.765,0-4.147h-0.193c-0.26,1.907-0.52,3.814-0.78,5.72c-0.062,0-0.122,0-0.182,0
			c0-1.876,0-3.755,0-5.633l-0.197-0.01l-0.197,0.011c0,1.382,0,2.763,0,4.146c-0.165,0-0.331,0-0.496-0.001
			c0-2.211,0-4.421,0-6.632c-0.13,0-0.259,0-0.387-0.001c0,0.645,0,1.289,0,1.933c-0.147,0-0.294-0.001-0.442-0.001
			c0-0.93,0-1.86,0-2.791c-0.042,0.004-0.081,0.008-0.122,0.012v21.831c0.075,0,0.149,0.001,0.225,0.002c0,0.346,0,0.691,0,1.037
			c0.214,0,0.427-0.001,0.64-0.002c0-1.983,0-3.967,0-5.951c0.213,0,0.425,0,0.637,0.001c0,1.652,0,3.305,0,4.957
			c0.131,0,0.261,0,0.392,0c0-1.792,0-3.584,0-5.376c0.046,0,0.093,0,0.139,0.001c0.244,1.32,0.487,2.641,0.73,3.961
			c0.093,0.002,0.185,0.002,0.277,0c0.058-0.974,0.116-1.948,0.176-2.922c0-0.764,0-1.528,0-2.292c0.07,0,0.142,0,0.213,0
			c0,0.764,0,1.528,0,2.293c0.255,2.006,0.51,4.013,0.766,6.021c0.014,0,0.026,0,0.041,0c0.213-2.214,0.427-4.428,0.642-6.642
			c0.119,0,0.239,0,0.358,0c0,1.739,0,3.478,0,5.217c0.152-0.001,0.304-0.001,0.457-0.001c0-0.883,0-1.765,0-2.647
			c0.191-0.796,0.383-1.592,0.576-2.389c0.034,0,0.068,0,0.102,0c0,0.797,0,1.593,0,2.39c0.004,0.429,0.01,0.858,0.013,1.288
			c0.158,0.15,0.432,0.299,0.456,0.451c0.079,0.5,0.067,1.002,0.091,1.504c0.136,0.014,0.269,0.028,0.402,0.042
			c0.03-0.213,0.086-0.425,0.087-0.639c0.006-1.852,0.003-3.704,0.003-5.555c0.317,0,0.637,0.001,0.955,0.001
			c0,2.322,0,4.644,0,6.965c0.338,0,0.677,0,1.012-0.001c0-0.662,0-1.324,0-1.986c0-0.666,0-1.332,0-1.999
			c0.165,0.001,0.328,0.001,0.492,0.002c0,1.261,0,2.522,0,3.783c0.201,0,0.402,0,0.604,0c0-2.542,0-5.083,0-7.625
			c0.208,0,0.417,0,0.625,0c0,2.642,0,5.284,0,7.926c0.89-2.219-0.423-4.459,1.332-6.594c0.224,1.746,0.444,3.559,0.705,5.372
			c0.024,0.17,0.286,0.339,0.438,0.508c0.463-1.556,0.926-3.113,1.43-4.808c0.275,0.757,0.5,1.377,0.726,1.997
			c0.15-0.001,0.301-0.002,0.451-0.003c0-0.974,0-1.947,0-2.921c0.189,0,0.378,0.001,0.569,0.001c0,1.134,0,2.268,0,3.401
			c0.167,0,0.338,0.001,0.507,0.001c0.038-0.145,0.074-0.29,0.111-0.434v0.176c0.007,0.038,0.015,0.075,0.021,0.113
			c0.092,0.002,0.185,0.002,0.275,0c0.061-0.974,0.118-1.948,0.176-2.922c0-0.763,0-1.528,0-2.293c0.072,0,0.143,0,0.214,0
			c0,0.765,0,1.53,0,2.293c0.255,2.007,0.51,4.014,0.767,6.021c0.013,0.001,0.026,0.001,0.039,0.002
			c0.215-2.214,0.428-4.428,0.643-6.642c0.12,0,0.24,0,0.358,0c0,1.739,0,3.477,0,5.216c0.152,0,0.306,0,0.457-0.001
			c0-0.881,0-1.764,0-2.647c0.191-0.796,0.385-1.592,0.577-2.388c0.032,0,0.067,0,0.101,0c0,0.796,0,1.593,0,2.389
			c0.006,0.43,0.009,0.859,0.014,1.289c0.158,0.149,0.431,0.299,0.455,0.45c0.079,0.501,0.067,1.002,0.093,1.504
			c0.133,0.014,0.267,0.029,0.401,0.042c0.029-0.213,0.085-0.426,0.085-0.64c0.006-1.85,0.005-3.704,0.005-5.555
			c0.316,0,0.637,0.001,0.953,0.002c0,2.322,0,4.643,0,6.965c0.339-0.001,0.677-0.001,1.014-0.001c0-0.663,0-1.325,0-1.986
			c0-0.667,0-1.332,0-2c0.164,0.001,0.328,0.001,0.491,0.002c0,1.262,0,2.523,0,3.784c0.201-0.001,0.401-0.001,0.604-0.001
			c0-2.542,0-5.082,0-7.623c0.114,0,0.229,0,0.344,0V798.13z"/>
		<polygon fill="#ACDDDA" points="591.859,818.954 583.564,800.094 587.309,800.094 587.309,787.458 591.859,787.458 		"/>
		<polygon fill="#ACDDDA" points="612.688,818.721 620.858,800.139 617.17,800.139 617.17,787.69 612.688,787.69 		"/>
	</g>
	<g>
		<path fill-rule="evenodd" clip-rule="evenodd" fill="#314F51" d="M608.288,828.125c0,2.37,0,4.739,0,7.108
			c0.338,0.003,0.673,0.004,1.009,0.007c0.732-1.128-0.044-2.278,0.711-3.41c0,0.848,0,1.695,0,2.541
			c0.33-0.076,0.404-0.156,0.411-0.234c0.145-1.801,0.275-3.602,0.439-5.4c0.016-0.168,0.246-0.336,0.377-0.502
			c0.1,2.434,0.198,4.867,0.298,7.301c0.227,0,0.451,0,0.678,0c0-1.383,0-2.765,0-4.147h0.194c0.021,0.153,0.04,0.306,0.062,0.459
			v-2.593c0.735,2.426-0.088,4.858,1.306,7.279c0-1.932,0-3.86,0-5.791c0.209,0,0.416,0,0.625,0c0,1.695,0,3.393,0,5.088
			c0.214,0,0.427,0,0.64,0c0-1.705,0-3.412,0-5.117c0.084-0.002,0.167-0.003,0.25-0.004c0.102,0.084,0.206,0.168,0.307,0.252
			c0.105,0,0.208,0,0.313-0.002c0-0.449,0-0.896,0-1.345c0.215,0.001,0.432,0.001,0.649,0.001c0.199,0.163,0.397,0.326,0.598,0.489
			l0.115,0.007h0.119c0.013,0.948,0.023,1.896,0.034,2.844c-0.145,0.684-0.29,1.365-0.436,2.048c0.184,0.002,0.366,0.004,0.55,0.005
			c0-0.385,0-0.77,0-1.153c0.091,0,0.181,0.001,0.269,0.002c0.07,0.201,0.14,0.403,0.209,0.604c0.105-0.002,0.21-0.002,0.316-0.004
			c0-0.438,0-0.875,0-1.313c0.014-1.419,0.015-2.838,0.056-4.256c0.004-0.149,0.228-0.301,0.35-0.451
			c0.01,1.362-0.051,2.725,0.051,4.088c0.101,1.365-0.483,2.738,0.892,4.094c0-2.473,0-4.946,0-7.42c0.134,0,0.27,0,0.403,0
			c0,0.93,0,1.859,0,2.788c0.089,0,0.177,0,0.265-0.001c0.141-0.602,0.281-1.201,0.422-1.803c0.166,0.006,0.333,0.014,0.499,0.02
			c0.041,1.311,0.082,2.62,0.124,3.929c0,0.977,0,1.954,0,2.93c0.103,0,0.204,0,0.308,0.001c0-0.977,0-1.952,0-2.928
			c0.016-0.123,0.03-0.248,0.045-0.372c0.149-0.073,0.298-0.147,0.444-0.222c0.095-1.774,0.189-3.549,0.284-5.324
			c0.15-0.029,0.302-0.057,0.455-0.088c0,2.37,0,4.74,0,7.108c0.336,0.003,0.671,0.005,1.006,0.007
			c0.733-1.127-0.044-2.277,0.712-3.409c0,0.848,0,1.694,0,2.541c0.331-0.077,0.404-0.155,0.411-0.233
			c0.146-1.801,0.275-3.602,0.439-5.402c0.016-0.168,0.246-0.334,0.378-0.502c0.099,2.435,0.198,4.868,0.299,7.301
			c0.226,0,0.451,0,0.677,0c0-1.382,0-2.765,0-4.146h0.193c0.26,1.906,0.52,3.814,0.78,5.72c0.062,0,0.121,0,0.181,0
			c0-1.876,0-3.755,0-5.633l0.198-0.011l0.197,0.012c0,1.382,0,2.764,0,4.145c0.165,0,0.331,0,0.496,0c0-2.211,0-4.422,0-6.633
			c0.129,0,0.258,0,0.387,0c0,0.644,0,1.287,0,1.932c0.147,0,0.293-0.001,0.442-0.001c0-0.931,0-1.86,0-2.79
			c0.285,0.027,0.57,0.057,0.855,0.084c0,0.166,0.001,0.332,0.002,0.499c0,2.076,0,4.152,0,6.229c0.231,0,0.462-0.001,0.693-0.001
			c0-2.076,0-4.151,0-6.228c0.063-0.104,0.125-0.21,0.188-0.315c0.533,2.156,0,4.313,0.505,6.463v15.363
			c-0.213-0.002-0.427-0.002-0.64-0.002c0-0.715,0-1.43,0-2.146c-0.209,0-0.418,0-0.628,0c0,0.982,0,1.967,0,2.949
			c-0.218,0-0.436,0-0.655,0.002c0-0.353,0-0.705,0-1.057c-0.141,0.002-0.281,0.002-0.423,0.004c0,0.347,0,0.691,0,1.037
			c-0.215,0-0.427,0-0.641-0.002c0-1.982,0-3.967,0-5.951c-0.212,0-0.424,0.002-0.637,0.003c0,1.651,0,3.305,0,4.956
			c-0.131,0-0.26,0-0.392,0c0-1.791,0-3.584,0-5.375c-0.046,0-0.092,0-0.139,0.002c-0.243,1.318-0.486,2.641-0.729,3.96
			c-0.093,0.002-0.185,0.002-0.277,0c-0.059-0.974-0.116-1.948-0.176-2.923c0-0.764,0-1.527,0-2.292c-0.07,0-0.142,0-0.213,0
			c0,0.765,0,1.528,0,2.293c-0.255,2.007-0.51,4.014-0.767,6.021c-0.013,0.001-0.026,0.001-0.04,0.001
			c-0.214-2.214-0.427-4.428-0.642-6.643c-0.12,0-0.239,0-0.358,0c0,1.739,0,3.479,0,5.217c-0.152,0-0.305,0-0.458,0
			c0-0.883,0-1.765,0-2.646c-0.191-0.797-0.382-1.594-0.576-2.391c-0.033,0-0.067,0-0.101,0c0,0.797,0,1.594,0,2.391
			c-0.005,0.43-0.01,0.858-0.014,1.287c-0.158,0.15-0.431,0.299-0.455,0.451c-0.079,0.5-0.068,1.003-0.092,1.504
			c-0.135,0.014-0.268,0.027-0.402,0.041c-0.029-0.213-0.085-0.425-0.086-0.639c-0.006-1.851-0.004-3.703-0.004-5.555
			c-0.316,0-0.637,0.001-0.954,0.001c0,2.323,0,4.645,0,6.966c-0.338,0-0.677,0-1.013-0.001c0-0.661,0-1.323,0-1.986
			c0-0.665,0-1.332,0-1.999c-0.164,0.001-0.327,0.001-0.491,0.002c0,1.262,0,2.521,0,3.783c-0.201,0-0.402,0-0.604,0
			c0-2.542,0-5.083,0-7.625c-0.208,0-0.417,0-0.625,0c0,2.643,0,5.285,0,7.927c-0.89-2.219,0.423-4.459-1.333-6.594
			c-0.223,1.745-0.444,3.559-0.705,5.372c-0.024,0.17-0.286,0.339-0.438,0.508c-0.463-1.556-0.926-3.113-1.43-4.808
			c-0.276,0.757-0.5,1.377-0.726,1.997c-0.15-0.001-0.301-0.002-0.451-0.004c0-0.973,0-1.946,0-2.92
			c-0.19,0-0.378,0.001-0.569,0.001c0,1.134,0,2.268,0,3.401c-0.168,0-0.338,0.001-0.507,0.001
			c-0.038-0.145-0.074-0.289-0.112-0.434v0.176c-0.006,0.038-0.014,0.075-0.021,0.113c-0.091,0.002-0.184,0.002-0.275,0
			c-0.06-0.975-0.117-1.948-0.176-2.923c0-0.764,0-1.527,0-2.293c-0.071,0-0.142,0-0.213,0c0,0.766,0,1.529,0,2.293
			c-0.255,2.008-0.511,4.016-0.767,6.021c-0.014,0.001-0.026,0.001-0.04,0.002c-0.214-2.215-0.428-4.428-0.642-6.643
			c-0.12,0-0.24,0-0.358,0c0,1.739,0,3.478,0,5.217c-0.153,0-0.307,0-0.457-0.002c0-0.881,0-1.764,0-2.646
			c-0.192-0.795-0.385-1.592-0.577-2.388c-0.033,0-0.067,0-0.102,0c0,0.796,0,1.593,0,2.389c-0.005,0.431-0.009,0.859-0.013,1.288
			c-0.158,0.15-0.431,0.299-0.455,0.45c-0.079,0.501-0.067,1.003-0.093,1.505c-0.039,0.004-0.08,0.008-0.121,0.012V828.15
			C608.201,828.143,608.244,828.135,608.288,828.125z"/>
		<path opacity="0.6" fill-rule="evenodd" clip-rule="evenodd" fill="#396E75" d="M606.832,828.133c0,0.93,0,1.859,0,2.79
			c-0.148,0-0.295,0.001-0.443,0.001c0-0.645,0-1.288,0-1.932c-0.127,0-0.256,0-0.387,0c0,2.211,0,4.422,0,6.633
			c-0.164,0-0.33,0-0.495,0c0-1.381,0-2.763,0-4.145l-0.198-0.012l-0.196,0.011c0,1.878,0,3.757,0,5.633c-0.06,0-0.121,0-0.183,0
			c-0.26-1.905-0.52-3.813-0.78-5.72h-0.193c0,1.382,0,2.765,0,4.146c-0.225,0-0.45,0-0.676,0c-0.101-2.433-0.2-4.866-0.3-7.301
			c-0.131,0.168-0.361,0.334-0.377,0.502c-0.164,1.801-0.293,3.602-0.439,5.402c-0.006,0.078-0.081,0.156-0.411,0.233
			c0-0.847,0-1.693,0-2.541c-0.756,1.132,0.021,2.282-0.711,3.409c-0.336-0.002-0.671-0.004-1.008-0.007c0-2.368,0-4.738,0-7.108
			c-0.151,0.031-0.304,0.059-0.455,0.088c-0.094,1.775-0.188,3.55-0.283,5.324c-0.146,0.074-0.294,0.148-0.443,0.222
			c-0.015,0.124-0.031,0.249-0.046,0.372c0,0.976,0,1.951,0,2.928c-0.104-0.001-0.205-0.001-0.308-0.001c0-0.976,0-1.953,0-2.93
			c-0.042-1.309-0.082-2.618-0.124-3.929c-0.166-0.006-0.333-0.014-0.498-0.02c-0.141,0.602-0.282,1.201-0.423,1.803
			c-0.088,0.001-0.176,0.001-0.264,0.001c0-0.929,0-1.858,0-2.788c-0.136,0-0.27,0-0.403,0c0,2.474,0,4.947,0,7.42
			c-1.376-1.355-0.791-2.729-0.893-4.094c-0.101-1.363-0.042-2.726-0.052-4.088c-0.122,0.15-0.344,0.302-0.349,0.451
			c-0.041,1.418-0.041,2.837-0.056,4.256c0,0.438,0,0.875,0,1.313c-0.106,0.002-0.211,0.002-0.316,0.004
			c-0.07-0.201-0.139-0.403-0.209-0.604c-0.088-0.001-0.179-0.002-0.268-0.002c0,0.384,0,0.769,0,1.153
			c-0.184-0.001-0.367-0.003-0.552-0.005c0.146-0.683,0.292-1.364,0.438-2.048c-0.012-0.947-0.023-1.896-0.034-2.844h-0.12
			l-0.115-0.007c-0.199-0.163-0.398-0.326-0.599-0.489c-0.217,0-0.434,0-0.648-0.001c0,0.448,0,0.896,0,1.345
			c-0.104,0.002-0.207,0.002-0.313,0.002c-0.103-0.084-0.206-0.168-0.308-0.252c-0.083,0.001-0.165,0.002-0.25,0.004
			c0,1.705,0,3.412,0,5.117c-0.213,0-0.426,0-0.64,0c0-1.695,0-3.393,0-5.088c-0.209,0-0.416,0-0.624,0c0,1.931,0,3.859,0,5.791
			c-1.395-2.421-0.571-4.854-1.306-7.279v2.593c-0.021-0.153-0.043-0.306-0.063-0.459h-0.193c0,1.383,0,2.765,0,4.147
			c-0.228,0-0.452,0-0.678,0c-0.101-2.434-0.2-4.867-0.298-7.301c-0.131,0.166-0.362,0.334-0.377,0.502
			c-0.166,1.799-0.295,3.6-0.44,5.4c-0.008,0.078-0.08,0.158-0.411,0.234c0-0.846,0-1.693,0-2.541
			c-0.756,1.132,0.021,2.282-0.712,3.41c-0.335-0.003-0.67-0.004-1.007-0.007c0-2.369,0-4.738,0-7.108
			c-0.152,0.029-0.304,0.059-0.455,0.088c-0.094,1.774-0.188,3.55-0.283,5.324c-0.147,0.074-0.295,0.147-0.444,0.222
			c-0.015,0.124-0.03,0.247-0.044,0.371c0,0.977,0,1.952,0,2.928c-0.104,0-0.207,0-0.31,0c0-0.977,0-1.952,0-2.931
			c-0.041-1.309-0.082-2.619-0.123-3.928c-0.166-0.008-0.332-0.014-0.499-0.02c-0.141,0.601-0.281,1.201-0.422,1.803
			c-0.088,0-0.176,0-0.264,0.001c0-0.93,0-1.858,0-2.788c-0.135,0-0.271,0-0.404,0c0,2.474,0,4.947,0,7.42
			c-1.376-1.355-0.791-2.729-0.894-4.094c-0.1-1.363-0.039-2.726-0.049-4.088c-0.122,0.15-0.347,0.301-0.35,0.451
			c-0.041,1.418-0.044,2.837-0.056,4.256c0,0.438,0,0.875,0,1.313c-0.106,0-0.212,0.002-0.317,0.004
			c-0.004-0.01-0.006-0.02-0.01-0.028v11.745c0.802,1.834-0.021,3.732,0.733,5.614c0-2.642,0-5.284,0-7.927c0.208,0,0.417,0,0.625,0
			c0,2.542,0,5.082,0,7.623c0.202,0,0.403,0,0.604,0.002c0-1.262,0-2.521,0-3.784c0.163-0.001,0.327-0.001,0.492-0.002
			c0,0.668,0,1.333,0,2c0,0.662,0,1.323,0,1.986c0.336,0,0.674,0,1.013,0.001c0-2.322,0-4.645,0-6.966
			c0.316-0.001,0.637-0.001,0.953-0.001c0,1.851-0.002,3.704,0.005,5.555c0,0.213,0.056,0.426,0.085,0.639
			c0.135-0.014,0.268-0.027,0.401-0.041c0.024-0.502,0.014-1.004,0.093-1.505c0.024-0.151,0.297-0.3,0.455-0.45
			c0.004-0.429,0.008-0.857,0.013-1.288c0-0.796,0-1.593,0-2.389c0.034,0,0.069,0,0.103,0c0.191,0.796,0.385,1.593,0.576,2.388
			c0,0.883,0,1.766,0,2.646c0.151,0.002,0.305,0.002,0.457,0.002c0-1.739,0-3.478,0-5.217c0.118,0,0.239,0,0.357,0
			c0.216,2.215,0.429,4.428,0.643,6.643c0.014-0.001,0.026-0.001,0.04-0.002c0.257-2.006,0.512-4.014,0.767-6.021
			c0-0.764,0-1.527,0-2.293c0.071,0,0.142,0,0.213,0c0,0.766,0,1.529,0,2.293c0.059,0.975,0.116,1.948,0.176,2.923
			c0.092,0.002,0.184,0.002,0.276,0c0.007-0.038,0.014-0.075,0.021-0.113v-0.176c0.036,0.145,0.073,0.289,0.111,0.434
			c0.169,0,0.339-0.001,0.507-0.001c0-1.134,0-2.268,0-3.401c0.19,0,0.38-0.001,0.568-0.001c0,0.974,0,1.947,0,2.92
			c0.15,0.002,0.302,0.003,0.452,0.004c0.225-0.62,0.45-1.24,0.726-1.997c0.504,1.694,0.967,3.252,1.431,4.808
			c0.151-0.169,0.413-0.338,0.438-0.508c0.26-1.813,0.481-3.627,0.705-5.372c1.755,2.135,0.441,4.375,1.332,6.594
			c0-2.642,0-5.284,0-7.927c0.208,0,0.417,0,0.625,0c0,2.542,0,5.083,0,7.625c0.202,0,0.403,0,0.604,0c0-1.262,0-2.521,0-3.783
			c0.165-0.001,0.328-0.001,0.492-0.002c0,0.667,0,1.334,0,1.999c0,0.663,0,1.325,0,1.986c0.336,0.001,0.675,0.001,1.013,0.001
			c0-2.321,0-4.643,0-6.966c0.318,0,0.638-0.001,0.955-0.001c0,1.852-0.003,3.704,0.003,5.555c0.001,0.214,0.057,0.426,0.086,0.639
			c0.135-0.014,0.268-0.027,0.403-0.041c0.023-0.501,0.012-1.004,0.091-1.504c0.023-0.152,0.297-0.301,0.455-0.451
			c0.004-0.429,0.009-0.857,0.014-1.287c0-0.797,0-1.594,0-2.391c0.033,0,0.067,0,0.101,0c0.193,0.797,0.386,1.594,0.577,2.391
			c0,0.882,0,1.764,0,2.646c0.152,0,0.305,0,0.457,0c0-1.738,0-3.478,0-5.217c0.119,0,0.239,0,0.359,0
			c0.214,2.215,0.427,4.429,0.641,6.643c0.014,0,0.027,0,0.04-0.001c0.256-2.008,0.512-4.015,0.767-6.021c0-0.765,0-1.528,0-2.293
			c0.071,0,0.143,0,0.213,0c0,0.765,0,1.528,0,2.292c0.059,0.975,0.118,1.949,0.176,2.923c0.092,0.002,0.185,0.002,0.276,0
			c0.244-1.319,0.487-2.642,0.73-3.96c0.047-0.002,0.094-0.002,0.14-0.002c0,1.791,0,3.584,0,5.375c0.131,0,0.261,0,0.392,0
			c0-1.651,0-3.305,0-4.956c0.212-0.001,0.424-0.003,0.637-0.003c0,1.984,0,3.969,0,5.951c0.212,0.002,0.426,0.002,0.64,0.002
			c0-0.346,0-0.69,0-1.037c0.075,0,0.149,0,0.225-0.002v-21.83C606.913,828.141,606.873,828.137,606.832,828.133z"/>
		<path opacity="0.6" fill-rule="evenodd" clip-rule="evenodd" fill="#396E75" d="M640.054,836.033c-0.081,0-0.161,0-0.243-0.001
			c0-2.368,0-4.739,0-7.108c-0.152,0.03-0.305,0.059-0.454,0.088c-0.095,1.775-0.189,3.549-0.284,5.324
			c-0.147,0.074-0.296,0.148-0.444,0.221c-0.014,0.125-0.029,0.249-0.045,0.373c0,0.976,0,1.951,0,2.928
			c-0.104-0.001-0.206-0.001-0.308-0.001c0-0.977,0-1.953,0-2.93c-0.042-1.31-0.083-2.618-0.123-3.929
			c-0.167-0.006-0.334-0.014-0.5-0.02c-0.141,0.602-0.281,1.201-0.422,1.803c-0.089,0.001-0.176,0.001-0.264,0.001
			c0-0.929,0-1.858,0-2.788c-0.135,0-0.271,0-0.404,0c0,2.473,0,4.947,0,7.42c-1.376-1.355-0.791-2.729-0.893-4.094
			c-0.101-1.363-0.04-2.726-0.05-4.088c-0.122,0.15-0.347,0.301-0.351,0.451c-0.04,1.418-0.043,2.837-0.055,4.255
			c0,0.438,0,0.876,0,1.313c-0.106,0.003-0.212,0.003-0.317,0.004c-0.069-0.201-0.138-0.402-0.208-0.604
			c-0.089-0.001-0.179-0.003-0.27-0.003c0,0.385,0,0.77,0,1.154c-0.183-0.001-0.366-0.003-0.549-0.005
			c0.146-0.683,0.291-1.364,0.437-2.048c-0.012-0.948-0.023-1.896-0.035-2.844h-0.119l-0.114-0.006
			c-0.2-0.164-0.399-0.327-0.599-0.49c-0.218,0-0.435,0-0.649-0.002c0,0.449,0,0.896,0,1.346c-0.104,0.001-0.208,0.001-0.313,0.002
			c-0.101-0.084-0.205-0.168-0.307-0.252c-0.067,0.001-0.136,0.002-0.203,0.002v16.405c0.407,1.372,0.793,2.67,1.178,3.962
			c0.151-0.169,0.413-0.338,0.438-0.508c0.26-1.813,0.48-3.627,0.705-5.373c1.756,2.135,0.443,4.375,1.333,6.595
			c0-2.642,0-5.284,0-7.927c0.208,0,0.417,0,0.625,0c0,2.542,0,5.084,0,7.625c0.202,0,0.403,0,0.604,0c0-1.262,0-2.522,0-3.783
			c0.163-0.001,0.327-0.001,0.491-0.002c0,0.666,0,1.333,0,1.999c0,0.663,0,1.324,0,1.986c0.336,0.001,0.675,0.001,1.013,0.001
			c0-2.322,0-4.643,0-6.966c0.316,0,0.638-0.001,0.954-0.001c0,1.852-0.002,3.703,0.004,5.555c0.001,0.213,0.057,0.426,0.086,0.639
			c0.134-0.014,0.268-0.027,0.402-0.041c0.024-0.502,0.013-1.004,0.092-1.504c0.011-0.071,0.079-0.141,0.161-0.211V836.033z"/>
		<polygon fill="#ACDDDA" points="608.855,856.271 600.685,837.689 604.373,837.689 604.373,825.24 608.855,825.24 		"/>
		<polygon fill="#ACDDDA" points="629.684,856.504 637.979,837.643 634.233,837.643 634.233,825.008 629.684,825.008 		"/>
	</g>
</g>
</svg>
