<?xml version="1.0" encoding="utf-8"?>
<!-- Generator: Adobe Illustrator 16.0.0, SVG Export Plug-In . SVG Version: 6.00 Build 0)  -->
<!DOCTYPE svg PUBLIC "-//W3C//DTD SVG 1.1//EN" "http://www.w3.org/Graphics/SVG/1.1/DTD/svg11.dtd">
<svg version="1.1" id="Calque_1" xmlns="http://www.w3.org/2000/svg" xmlns:xlink="http://www.w3.org/1999/xlink" x="0px" y="0px"
	 width="1218.9px" height="1644.09px" viewBox="0 0 1218.9 1644.09" enable-background="new 0 0 1218.9 1644.09"
	 xml:space="preserve">
<g>
	<g>
		<g>
			<path fill-rule="evenodd" clip-rule="evenodd" fill="#314F51" d="M623.675,818.81c-1.059-1.789,0.105-3.609-1.092-5.403
				c0,1.373,0,2.744,0,4.117c-0.536-0.125-0.656-0.253-0.666-0.38c-0.238-2.917-0.447-5.833-0.713-8.75
				c-0.025-0.272-0.398-0.542-0.611-0.813c-0.161,3.942-0.32,7.885-0.484,11.826c-0.364,0-0.731,0-1.095,0c0-2.238,0-4.479,0-6.718
				h-0.314c-0.422,3.089-0.843,6.178-1.264,9.267c-0.099,0-0.196,0-0.294,0c0-3.041,0-6.084,0-9.125l-0.321-0.018l-0.319,0.019
				c0,2.239,0,4.477,0,6.716c-0.265,0-0.535,0-0.8-0.002c0-3.582,0-7.162,0-10.744c-0.213,0-0.422,0-0.628-0.002
				c0,1.044,0,2.087,0,3.131c-0.241,0-0.479-0.001-0.719-0.001c0-1.507,0-3.014,0-4.521c-0.463,0.045-0.921,0.092-1.384,0.138
				c0,0.269-0.003,0.539-0.003,0.808c0,3.363,0,6.727,0,10.09c-0.377,0-0.751-0.001-1.125-0.001c0-3.364,0-6.725,0-10.088
				c-0.101-0.169-0.202-0.34-0.303-0.51c-0.942,3.794,0.188,7.593-1.05,11.374c-0.212,0-0.427-0.001-0.64-0.003v-5.783
				c-0.035-0.247-0.069-0.495-0.102-0.742h-0.313c0,2.239,0,4.48,0,6.718c-0.367,0-0.73,0-1.099,0
				c-0.161-3.941-0.319-7.884-0.481-11.826c-0.212,0.271-0.585,0.54-0.61,0.813c-0.267,2.917-0.479,5.833-0.712,8.75
				c-0.01,0.127-0.131,0.255-0.666,0.38c0-1.373,0-2.744,0-4.117c-1.225,1.833,0.034,3.696-1.152,5.523
				c-0.545-0.003-1.087-0.006-1.635-0.011c0-3.836,0-7.677,0-11.515c-0.243,0.049-0.491,0.095-0.734,0.143
				c-0.085,1.626-0.173,3.251-0.259,4.878v-4.987c-0.07-0.013-0.141-0.027-0.213-0.04c0,2.927,0,5.853,0,8.78
				c-0.236,0.118-0.472,0.235-0.707,0.352c-0.025,0.201-0.05,0.402-0.073,0.604c0,0.594,0,1.189,0,1.785
				c-0.284,0.001-0.569,0.003-0.852,0.006c-1.187-1.828,0.069-3.691-1.152-5.525c0,1.373,0,2.746,0,4.117
				c-0.535-0.125-0.655-0.254-0.665-0.38c-0.237-2.917-0.446-5.833-0.713-8.749c-0.025-0.272-0.397-0.543-0.61-0.813
				c-0.162,3.941-0.323,7.884-0.485,11.827c-0.363,0-0.728,0-1.095,0c0-2.24,0-4.479,0-6.72h-0.314
				c-0.034,0.248-0.066,0.496-0.101,0.744v-4.199c-1.191,3.929,0.143,7.87-2.116,11.79c0-3.127,0-6.253,0-9.38
				c-0.339,0-0.674,0-1.013,0c0,2.747,0,5.494,0,8.241c-0.346,0-0.691,0-1.035,0c0-2.763,0-5.528,0-8.289
				c-0.138-0.003-0.27-0.005-0.405-0.006c-0.165,0.136-0.333,0.272-0.498,0.409c-0.171-0.001-0.336-0.001-0.506-0.003
				c0-0.728,0-1.452,0-2.179c-0.35,0.001-0.7,0.001-1.052,0.001c-0.323,0.265-0.646,0.529-0.969,0.793l-0.188,0.011h-0.193
				c-0.02,1.536-0.038,3.07-0.054,4.606c0.234,1.107,0.469,2.213,0.706,3.318c-0.298,0.002-0.595,0.006-0.894,0.007
				c0-0.624,0-1.246,0-1.868c-0.145,0-0.29,0.001-0.433,0.003c-0.114,0.326-0.226,0.652-0.34,0.978
				c-0.17-0.001-0.338-0.003-0.512-0.006c0-0.708,0-1.417,0-2.127c-0.023-2.298-0.023-4.595-0.09-6.893
				c-0.006-0.242-0.367-0.488-0.566-0.732c-0.017,2.208,0.082,4.415-0.083,6.623c-0.164,2.212,0.783,4.437-1.444,6.632
				c0-4.005,0-8.013,0-12.02c-0.218,0-0.436,0-0.655,0c0,1.506,0,3.012,0,4.516c-0.142,0-0.285,0-0.427-0.001
				c-0.229-0.974-0.457-1.946-0.685-2.92c-0.269,0.009-0.539,0.021-0.807,0.031c-0.067,2.122-0.134,4.244-0.2,6.364
				c0,1.582,0,3.164,0,4.745c-0.168,0-0.333,0-0.5,0.002c0-1.582,0-3.162,0-4.742c-0.022-0.201-0.048-0.402-0.072-0.604
				c-0.241-0.119-0.481-0.238-0.719-0.358c-0.153-2.875-0.308-5.749-0.46-8.625c-0.243-0.047-0.491-0.093-0.738-0.143
				c0,3.838,0,7.679,0,11.515c-0.545,0.005-1.087,0.007-1.631,0.011c-1.188-1.827,0.072-3.689-1.152-5.523c0,1.373,0,2.744,0,4.117
				c-0.536-0.125-0.656-0.253-0.666-0.38c-0.237-2.917-0.446-5.833-0.712-8.75c-0.026-0.272-0.398-0.542-0.611-0.813
				c-0.161,3.942-0.321,7.885-0.484,11.826c-0.098,0-0.194,0-0.292,0v17.279c0.378,2.97,0.754,5.938,1.134,8.909
				c0.023,0.002,0.044,0.002,0.067,0.002c0.344-3.586,0.69-7.174,1.038-10.76c0.192,0,0.386,0,0.58,0c0,2.816,0,5.635,0,8.451
				c0.246-0.002,0.493-0.002,0.74-0.002c0-1.43,0-2.857,0-4.287c0.311-1.291,0.621-2.58,0.936-3.871c0.054,0,0.11,0,0.164,0
				c0,1.291,0,2.581,0,3.872c0.006,0.695,0.016,1.39,0.022,2.085c0.256,0.244,0.696,0.485,0.734,0.73
				c0.13,0.811,0.11,1.625,0.149,2.438c0.218,0.021,0.435,0.043,0.652,0.065c0.047-0.345,0.139-0.688,0.139-1.033
				c0.009-2.999,0.006-6,0.006-8.999c0.514,0,1.033,0.002,1.545,0.002c0,3.762,0,7.521,0,11.283c0.549,0,1.097,0,1.642-0.002
				c0-1.072,0-2.144,0-3.217c0-1.078,0-2.158,0-3.238c0.266,0.001,0.532,0.001,0.798,0.003c0,2.042,0,4.085,0,6.128
				c0.323,0,0.648,0,0.979,0c0-4.117,0-8.234,0-12.351c0.334,0,0.675,0,1.01,0c0,4.279,0,8.56,0,12.839
				c1.443-3.594-0.685-7.223,2.16-10.681c0.361,2.827,0.721,5.765,1.143,8.702c0.038,0.275,0.463,0.551,0.709,0.823
				c0.751-2.521,1.498-5.043,2.315-7.788c0.446,1.227,0.811,2.23,1.174,3.234c0.245-0.002,0.488-0.003,0.732-0.004
				c0-1.578,0-3.155,0-4.732c0.307,0,0.614,0.002,0.922,0.002c0,1.837,0,3.674,0,5.51c0.271,0,0.547,0.002,0.822,0.002
				c0.061-0.234,0.122-0.469,0.182-0.703v0.285c0.01,0.063,0.022,0.121,0.034,0.184c0.149,0.003,0.298,0.003,0.447,0
				c0.095-1.578,0.189-3.156,0.285-4.734c0-1.236,0-2.475,0-3.715c0.114,0,0.228,0,0.344,0c0,1.24,0,2.479,0,3.715
				c0.412,3.252,0.827,6.504,1.242,9.754c0.022,0.002,0.041,0.002,0.063,0.003c0.349-3.586,0.693-7.173,1.042-10.759
				c0.192,0,0.386,0,0.579,0c0,2.816,0,5.633,0,8.449c0.247,0,0.494,0,0.742-0.002c0-1.428,0-2.857,0-4.288
				c0.31-1.288,0.619-2.579,0.934-3.868c0.055,0,0.107,0,0.165,0c0,1.289,0,2.582,0,3.87c0.006,0.696,0.013,1.392,0.02,2.087
				c0.255,0.242,0.699,0.484,0.736,0.729c0.13,0.813,0.112,1.625,0.149,2.438c0.066,0.006,0.133,0.013,0.197,0.02v-9.979
				c0.06,0,0.123,0,0.183,0c0,2.999-0.002,6,0.006,8.999c0,0.345,0.093,0.688,0.14,1.033c0.216-0.022,0.435-0.044,0.649-0.065
				c0.041-0.813,0.022-1.627,0.148-2.438c0.042-0.245,0.481-0.486,0.738-0.73c0.007-0.695,0.013-1.39,0.022-2.085
				c0-1.291,0-2.581,0-3.872c0.054,0,0.11,0,0.164,0c0.312,1.291,0.625,2.58,0.935,3.871c0,1.43,0,2.857,0,4.287
				c0.243,0,0.491,0,0.741,0.002c0-2.816,0-5.635,0-8.451c0.189,0,0.387,0,0.58,0c0.348,3.586,0.692,7.174,1.038,10.76
				c0.021,0,0.044,0,0.067-0.002c0.415-3.252,0.825-6.503,1.24-9.754c0-1.238,0-2.477,0-3.715c0.115,0,0.229,0,0.346,0
				c0,1.238,0,2.477,0,3.713c0.095,1.579,0.189,3.158,0.285,4.735c0.149,0.003,0.298,0.003,0.445,0
				c0.014-0.061,0.023-0.122,0.035-0.183v-4.639c0.288,0,0.577,0,0.865,0c0,2.48,0,4.963,0,7.445
				c0.349-0.002,0.696-0.002,1.042-0.002c0-1.159,0-2.318,0-3.478c0.339,0,0.678,0,1.017,0c0,1.591,0,3.185,0,4.775
				c0.354,0.002,0.706,0.002,1.062,0.003c0-0.57,0-1.139,0-1.709c0.228,0.001,0.455,0.003,0.687,0.006c0,0.561,0,1.119,0,1.68
				c0.344,0,0.69-0.002,1.036-0.003c0-3.213,0-6.426,0-9.64c0.345,0,0.687,0.001,1.032,0.003c0,2.676,0,5.354,0,8.03
				c0.212,0,0.421,0,0.633,0c0-2.902,0-5.807,0-8.71c0.077,0.002,0.148,0.002,0.225,0.004c0.396,2.138,0.789,4.278,1.185,6.416
				c0.149,0.003,0.298,0.003,0.446,0c0.095-1.577,0.19-3.156,0.286-4.735c0-1.236,0-2.475,0-3.713c0.113,0,0.23,0,0.344,0
				c0,1.238,0,2.477,0,3.715c0.415,3.251,0.827,6.502,1.242,9.754c0.022,0.002,0.044,0.002,0.066,0.002
				c0.345-3.586,0.691-7.174,1.039-10.76c0.192,0,0.386,0,0.579,0c0,2.816,0,5.635,0,8.451c0.247-0.002,0.493-0.002,0.74-0.002
				c0-1.43,0-2.857,0-4.287c0.1-0.412,0.2-0.824,0.299-1.237V818.81z"/>
			<path opacity="0.6" fill-rule="evenodd" clip-rule="evenodd" fill="#396E75" d="M643.312,811.576
				c-0.164,0.136-0.332,0.272-0.496,0.407c-0.172-0.002-0.341-0.002-0.509-0.003c0-0.727,0-1.452,0-2.178
				c-0.348,0-0.699,0-1.05,0.001c-0.322,0.265-0.646,0.529-0.97,0.793l-0.188,0.011h-0.192c-0.019,1.534-0.037,3.07-0.057,4.606
				c0.234,1.105,0.472,2.212,0.706,3.318c-0.294,0.003-0.592,0.004-0.89,0.007c0-0.624,0-1.246,0-1.87
				c-0.146,0.002-0.291,0.003-0.435,0.003c-0.114,0.326-0.225,0.654-0.338,0.98c-0.172-0.002-0.342-0.005-0.515-0.007
				c0-0.709,0-1.417,0-2.126c-0.018-2.297-0.024-4.595-0.088-6.893c-0.006-0.244-0.371-0.488-0.567-0.731
				c-0.015,2.207,0.08,4.414-0.081,6.622c-0.165,2.212,0.782,4.436-1.448,6.631c0-4.006,0-8.013,0-12.018c-0.215,0-0.433,0-0.652,0
				c0,1.504,0,3.01,0,4.516c-0.142-0.001-0.285-0.001-0.427-0.001c-0.229-0.974-0.457-1.947-0.685-2.922
				c-0.269,0.012-0.537,0.021-0.809,0.032c-0.065,2.122-0.132,4.244-0.198,6.364c0,1.584,0,3.166,0,4.748c-0.167,0-0.332,0-0.501,0
				c0-1.581,0-3.161,0-4.743c-0.024-0.201-0.05-0.4-0.072-0.602c-0.24-0.121-0.48-0.239-0.72-0.359
				c-0.154-2.874-0.306-5.75-0.459-8.625c-0.243-0.048-0.491-0.093-0.737-0.141c0,3.838,0,7.677,0,11.515
				c-0.545,0.003-1.09,0.006-1.631,0.011c-1.188-1.828,0.07-3.691-1.153-5.525c0,1.373,0,2.746,0,4.117
				c-0.535-0.125-0.655-0.254-0.664-0.38c-0.237-2.917-0.447-5.833-0.712-8.749c-0.021-0.215-0.256-0.429-0.459-0.643v36.23
				c0.068,0.538,0.136,1.076,0.204,1.613c0.023,0.002,0.042,0.002,0.063,0.003c0.35-3.586,0.693-7.173,1.042-10.759
				c0.193,0,0.387,0,0.579,0c0,2.816,0,5.633,0,8.449c0.247,0,0.495,0,0.741-0.002c0-1.428,0-2.857,0-4.288
				c0.311-1.288,0.622-2.579,0.936-3.868c0.054,0,0.107,0,0.164,0c0,1.289,0,2.582,0,3.87c0.006,0.696,0.012,1.392,0.019,2.087
				c0.257,0.242,0.701,0.484,0.738,0.729c0.13,0.813,0.111,1.625,0.149,2.438c0.218,0.021,0.434,0.045,0.651,0.067
				c0.049-0.345,0.137-0.69,0.139-1.036c0.011-2.996,0.008-5.999,0.008-8.998c0.512,0,1.032,0.002,1.545,0.003
				c0,3.761,0,7.521,0,11.284c0.548-0.002,1.097-0.002,1.64-0.002c0-1.074,0-2.146,0-3.219c0-1.078,0-2.157,0-3.238
				c0.268,0.001,0.533,0.001,0.796,0.002c0,2.045,0,4.088,0,6.131c0.326-0.002,0.651-0.002,0.978-0.002c0-4.117,0-8.232,0-12.35
				c0.34,0,0.679,0,1.015,0c0,4.281,0,8.561,0,12.841c1.44-3.597-0.685-7.226,2.159-10.683c0.364,2.826,0.722,5.764,1.141,8.703
				c0.04,0.275,0.466,0.547,0.709,0.823c0.623-2.094,1.251-4.196,1.91-6.418v-26.575
				C643.53,811.578,643.423,811.576,643.312,811.576z"/>
			<path fill="#ACDDDA" d="M589.467,805.423v17.466v2.7h2.7h1.839l-6.401,14.555v-34.721H589.467 M592.167,802.723h-7.263v50.267
				l13.238-30.101h-5.976V802.723L592.167,802.723z"/>
			<polygon fill="#ACDDDA" points="621.96,852.99 635.198,822.89 629.222,822.89 629.222,802.723 621.96,802.723 			"/>
		</g>
	</g>
	<g>
		<path fill="#F0F1F1" d="M618.453,861.299l-3.437-4.639c-0.021-0.03-2.21-2.977-4.125-4.92c-3.034-3.082-5.63-5.005-5.656-5.023
			l5.342-7.244c0.129,0.095,3.199,2.369,6.726,5.951c0.526,0.535,1.059,1.115,1.568,1.697c2.288-2.283,5.57-5.29,9.688-8.351
			c7.242-5.386,14.486-9.445,14.791-9.616l4.389,7.858c-0.07,0.038-7.055,3.956-13.81,8.979
			c-7.411,5.512-11.772,10.79-11.815,10.844L618.453,861.299z"/>
	</g>
	<polygon fill="#F0F1F1" points="623.497,790.02 608.126,782.52 608.126,787.52 582.324,787.52 582.324,792.52 608.126,792.52 
		608.126,797.52 	"/>
</g>
</svg>
