<?xml version="1.0" encoding="utf-8"?>
<!-- Generator: Adobe Illustrator 16.0.0, SVG Export Plug-In . SVG Version: 6.00 Build 0)  -->
<!DOCTYPE svg PUBLIC "-//W3C//DTD SVG 1.1//EN" "http://www.w3.org/Graphics/SVG/1.1/DTD/svg11.dtd">
<svg version="1.1" id="Calque_1" xmlns="http://www.w3.org/2000/svg" xmlns:xlink="http://www.w3.org/1999/xlink" x="0px" y="0px"
	 width="1218.9px" height="1644.09px" viewBox="0 0 1218.9 1644.09" enable-background="new 0 0 1218.9 1644.09"
	 xml:space="preserve">
<g>
	<g>
		<g>
			<g>
				<circle fill="#314F51" cx="607.982" cy="824.005" r="31.209"/>
			</g>
			<g>
				<path fill="#2FA8C4" d="M619.039,824.006c0.002-6.109-4.947-11.059-11.056-11.06c-6.108,0-11.058,4.952-11.059,11.06
					c0,6.105,4.951,11.058,11.057,11.058C614.089,835.063,619.041,830.111,619.039,824.006z M606.246,824.004
					c0-0.958,0.775-1.735,1.735-1.736c0.961-0.001,1.738,0.779,1.738,1.738c-0.003,0.957-0.775,1.734-1.738,1.732
					C607.021,825.74,606.244,824.963,606.246,824.004z"/>
			</g>
		</g>
	</g>
	<g>
		<polygon fill="#F0F1F1" points="633.966,784.778 638.049,793.727 647.819,794.844 640.572,801.493 642.528,811.13 
			633.966,806.292 625.404,811.13 627.358,801.493 620.113,794.844 629.884,793.727 		"/>
	</g>
</g>
</svg>
