<?xml version="1.0" encoding="utf-8"?>
<!-- Generator: Adobe Illustrator 16.0.0, SVG Export Plug-In . SVG Version: 6.00 Build 0)  -->
<!DOCTYPE svg PUBLIC "-//W3C//DTD SVG 1.1//EN" "http://www.w3.org/Graphics/SVG/1.1/DTD/svg11.dtd">
<svg version="1.1" id="Calque_1" xmlns="http://www.w3.org/2000/svg" xmlns:xlink="http://www.w3.org/1999/xlink" x="0px" y="0px"
	 width="1218.9px" height="1644.09px" viewBox="0 0 1218.9 1644.09" enable-background="new 0 0 1218.9 1644.09"
	 xml:space="preserve">
<g>
	<path fill="#314F51" d="M602.567,824.246c-0.771-1.643-1.325-3.333-1.688-5.036c-2.943,0.001-5.886,0.006-8.828,0.001
		c0.043-1.38,0.087-2.761,0.132-4.141c0.032-1.072-0.726-1.944-1.696-1.948c-3.823-0.013-7.648-0.035-11.473-0.065
		c-0.969-0.008-1.848,0.858-1.96,1.935c-0.955,13.033-1.697,26.057-2.247,39.074c16.174-0.133,32.346-0.133,48.52,0
		c-0.211-5.507-0.459-11.015-0.742-16.523C614.019,837.175,606.233,832.047,602.567,824.246z"/>
	<g>
		<g>
			<path fill="#314F51" d="M642.105,805.676c4.812,10.241,0.407,22.443-9.833,27.254c-10.24,4.811-22.442,0.407-27.254-9.833
				c-4.811-10.241-0.407-22.443,9.834-27.253C625.091,791.033,637.295,795.435,642.105,805.676z"/>
		</g>
		<path fill="#2FA8C4" d="M630.821,814.387c0-4.01-3.248-7.259-7.258-7.259s-7.26,3.25-7.26,7.259c0,4.009,3.25,7.259,7.258,7.259
			C627.571,821.646,630.823,818.396,630.821,814.387z M622.423,814.386c0-0.629,0.51-1.139,1.139-1.14
			c0.632,0,1.142,0.511,1.142,1.14c-0.001,0.629-0.509,1.14-1.142,1.139C622.933,815.526,622.423,815.016,622.423,814.386z"/>
	</g>
	<g>
		<path fill="#ACDDDA" d="M574.808,854.066h48.549l1.347-28.82h-33.632v-3.432c0-0.89-0.926-1.61-2.066-1.61h-13.478
			c-1.14,0-2.064,0.721-2.064,1.61L574.808,854.066z"/>
	</g>
</g>
</svg>
