<?xml version="1.0" encoding="utf-8"?>
<!-- Generator: Adobe Illustrator 16.0.0, SVG Export Plug-In . SVG Version: 6.00 Build 0)  -->
<!DOCTYPE svg PUBLIC "-//W3C//DTD SVG 1.1//EN" "http://www.w3.org/Graphics/SVG/1.1/DTD/svg11.dtd">
<svg version="1.1" id="Calque_1" xmlns="http://www.w3.org/2000/svg" xmlns:xlink="http://www.w3.org/1999/xlink" x="0px" y="0px"
	 width="1218.9px" height="1644.09px" viewBox="0 0 1218.9 1644.09" enable-background="new 0 0 1218.9 1644.09"
	 xml:space="preserve">
<g>
	<path fill-rule="evenodd" clip-rule="evenodd" fill="#314F51" d="M591.37,820.258c0.2,0.001,0.399,0.002,0.598,0.003
		c1.159-3.54,0.104-7.095,0.983-10.647c0.095,0.16,0.188,0.318,0.283,0.477c0,3.148,0,6.296,0,9.443
		c0.351,0,0.701,0.001,1.053,0.001c0-3.147,0-6.296,0-9.444c0.001-0.251,0.002-0.503,0.002-0.755
		c0.433-0.042,0.865-0.086,1.298-0.129c0,1.411,0,2.821,0,4.231c0.224,0.001,0.448,0.002,0.671,0.002c0-0.977,0-1.953,0-2.931
		c0.194,0.001,0.391,0.001,0.587,0.001c0,3.353,0,6.704,0,10.057c0.249,0,0.501,0,0.751,0.001c0-2.095,0-4.19,0-6.285l0.299-0.019
		l0.3,0.017c0,2.847,0,5.695,0,8.542c0.092,0,0.183,0,0.276,0c0.395-2.892,0.789-5.783,1.183-8.675h0.293c0,2.096,0,4.193,0,6.29
		c0.343,0,0.685,0,1.027,0c0.151-3.69,0.302-7.381,0.452-11.07c0.198,0.252,0.548,0.505,0.571,0.76c0.25,2.73,0.446,5.46,0.668,8.19
		c0.01,0.119,0.121,0.238,0.623,0.355c0-1.284,0-2.569,0-3.854c1.146,1.717-0.033,3.46,1.078,5.171
		c0.509-0.004,1.018-0.007,1.527-0.011c0-3.592,0-7.186,0-10.778c0.23,0.045,0.461,0.088,0.69,0.132
		c0.143,2.692,0.286,5.383,0.43,8.073c0.224,0.113,0.447,0.224,0.673,0.336c0.022,0.188,0.047,0.375,0.069,0.564
		c0,1.479,0,2.959,0,4.439c0.155,0,0.312,0,0.466-0.001c0-1.48,0-2.961,0-4.442c0.063-1.985,0.127-3.972,0.189-5.958
		c0.252-0.01,0.503-0.02,0.756-0.03c0.212,0.912,0.426,1.823,0.641,2.734c0.133,0.001,0.266,0.001,0.399,0.001
		c0-1.409,0-2.818,0-4.228c0.204,0,0.41,0,0.612,0c0,3.75,0,7.501,0,11.25c2.086-2.056,1.199-4.137,1.354-6.208
		c0.151-2.066,0.062-4.133,0.077-6.198c0.185,0.228,0.522,0.457,0.529,0.685c0.062,2.15,0.063,4.301,0.084,6.452
		c0,0.664,0,1.327,0,1.991c0.161,0.002,0.32,0.004,0.48,0.006c0.104-0.305,0.21-0.611,0.315-0.917
		c0.135-0.001,0.271-0.003,0.407-0.003c0,0.583,0,1.166,0,1.75c0.277-0.001,0.556-0.004,0.834-0.007
		c-0.221-1.035-0.441-2.07-0.661-3.105c0.017-1.438,0.035-2.875,0.053-4.312h0.18l0.176-0.01c0.303-0.248,0.604-0.496,0.907-0.743
		c0.328-0.001,0.657-0.001,0.984-0.002c0,0.68,0,1.359,0,2.039c0.158,0.001,0.314,0.001,0.474,0.003
		c0.154-0.127,0.311-0.254,0.466-0.382c0.126,0.001,0.252,0.002,0.379,0.005c0,2.586,0,5.173,0,7.76c0.323,0,0.646,0,0.97,0
		c0-2.572,0-5.143,0-7.715c0.316,0,0.632,0,0.947,0c0,2.927,0,5.853,0,8.779c2.142-3.713,0.825-7.448,2.014-11.169
		c0,1.91,0,3.82,0,5.73c0,1.537,0,3.075,0,4.613c0.223,0.001,0.448,0.001,0.673,0.002c0-1.526,0-3.05,0-4.576
		c0.153-2.351,0.307-4.701,0.461-7.053c0.114-0.083,0.229-0.165,0.416-0.301c0.184,0.136,0.297,0.219,0.41,0.301
		c0,2.706,0,5.412,0,8.118c0.157,0,0.314,0.001,0.469,0.001c0-1.85,0-3.7,0-5.55c0.308,0,0.613,0,0.92,0c0,4.879,0,9.758,0,14.638
		c0.329,0,0.657,0.002,0.982,0.003c0-1.307,0-2.612,0-3.918c0.222,0,0.44-0.001,0.661-0.001c0,0.625,0,1.25,0,1.875
		c0.318,0,0.64,0,0.958,0.001c0-3.76,0-7.52,0-11.279c0.232,0,0.464,0,0.694,0c0.309,3.836,0.621,7.673,0.932,11.509
		c0.429,0.147,0.856,0.295,1.286,0.443c-0.002,1.891-0.003,3.783-0.004,5.676c-0.426,0.101-0.851,0.201-1.273,0.301
		c-0.213,2.286-0.445,4.571-0.633,6.857c-0.06,0.717-0.009,1.435-0.521,2.152c0-2.797,0-5.594,0-8.39
		c-0.323-0.003-0.646-0.006-0.967-0.009c0,1.115,0,2.229,0,3.343c-0.345-0.001-0.689-0.001-1.034-0.001c0-1.93,0-3.859,0-5.789
		c-0.22,0-0.438,0-0.657,0c0,0.229,0.013,0.459-0.002,0.689c-0.212,3.178-0.271,6.359-0.713,9.536
		c-0.192,1.388-1.17,2.771-1.838,4.26c-0.236-1.484-0.459-2.88-0.684-4.274c0-1.758,0-3.515,0-5.271c-0.178,0-0.356,0-0.537,0
		c0,1.757,0,3.514,0,5.27c-0.067,0.263-0.136,0.524-0.202,0.786c-0.257-0.001-0.514-0.001-0.77-0.002c0-1.72,0-3.438,0-5.157
		c-0.289,0-0.575-0.002-0.863-0.002c0,1.477,0,2.952,0,4.429c-0.228,0.001-0.455,0.003-0.684,0.005
		c-0.342-0.939-0.683-1.879-1.102-3.028c-0.764,2.57-1.465,4.931-2.167,7.291c-0.23-0.257-0.628-0.513-0.664-0.771
		c-0.395-2.75-0.729-5.5-1.068-8.146c-2.662,3.236-0.672,6.635-2.021,9.999c0-4.007,0-8.013,0-12.019c-0.315,0-0.633,0-0.948,0
		c0,3.854,0,7.707,0,11.561c-0.306,0-0.611,0-0.916,0c0-1.912,0-3.824,0-5.736c-0.249-0.002-0.495-0.002-0.745-0.003
		c0,1.012,0,2.021,0,3.032c0,1.004,0,2.007,0,3.012c-0.511,0-1.023,0-1.535,0.001c0-3.521,0-7.042,0-10.563
		c-0.482-0.001-0.966-0.002-1.448-0.002c0,2.808,0.004,5.616-0.006,8.423c-0.001,0.323-0.084,0.646-0.129,0.969
		c-0.204-0.02-0.406-0.041-0.61-0.063c-0.037-0.76-0.02-1.521-0.14-2.281c-0.036-0.229-0.45-0.455-0.689-0.683
		c-0.007-0.65-0.013-1.302-0.021-1.952c0-1.208,0-2.416,0-3.624c-0.051,0-0.103,0-0.154,0c-0.291,1.207-0.583,2.415-0.873,3.622
		c0,1.338,0,2.676,0,4.014c-0.231,0-0.463,0-0.693,0.002c0-2.637,0-5.273,0-7.91c-0.182,0-0.363,0-0.544,0
		c-0.325,3.357-0.648,6.714-0.974,10.071c-0.02-0.001-0.041-0.001-0.061-0.001c-0.389-3.045-0.775-6.088-1.163-9.131
		c0-1.159,0-2.318,0-3.478c-0.106,0-0.214,0-0.322,0c0,1.159,0,2.318,0,3.476c-0.089,1.479-0.177,2.955-0.267,4.433
		c-0.14,0.003-0.28,0.003-0.419,0c-0.369-2.002-0.738-4.005-1.107-6.007c-0.07,0-0.141-0.002-0.211-0.002c0,2.717,0,5.434,0,8.15
		c-0.197,0-0.396,0-0.594,0.002c0-2.506,0-5.012,0-7.518c-0.322-0.002-0.644-0.002-0.965-0.003c0,3.009,0,6.017,0,9.024
		c-0.324,0.002-0.647,0.003-0.971,0.003c0-0.524,0-1.048,0-1.573c-0.216-0.002-0.429-0.004-0.642-0.006c0,0.534,0,1.067,0,1.602
		c-0.332-0.002-0.663-0.002-0.994-0.003c0-1.491,0-2.981,0-4.472c-0.316,0-0.634,0.002-0.952,0.002c0,1.084,0,2.168,0,3.254
		c-0.324,0-0.649,0-0.974,0.002c0-2.324,0-4.646,0-6.971c-0.271,0.001-0.539,0.001-0.811,0.001V820.258z"/>
	<path opacity="0.6" fill-rule="evenodd" clip-rule="evenodd" fill="#396E75" d="M645.272,814.149h-0.293c0,2.096,0,4.193,0,6.29
		c-0.344,0-0.685,0-1.028,0c-0.151-3.69-0.302-7.381-0.452-11.07c-0.197,0.252-0.547,0.505-0.571,0.76
		c-0.249,2.73-0.446,5.46-0.668,8.19c-0.01,0.119-0.121,0.238-0.623,0.355c0-1.284,0-2.569,0-3.854
		c-1.146,1.717,0.033,3.46-1.077,5.171c-0.509-0.004-1.018-0.007-1.528-0.011c0-3.592,0-7.186,0-10.778
		c-0.229,0.045-0.461,0.088-0.69,0.132c-0.143,2.692-0.285,5.383-0.429,8.073c-0.225,0.113-0.447,0.224-0.673,0.336
		c-0.023,0.188-0.047,0.375-0.07,0.564c0,1.479,0,2.959,0,4.439c-0.155,0-0.312,0-0.466-0.001c0-1.48,0-2.961,0-4.442
		c-0.063-1.985-0.126-3.972-0.188-5.958c-0.252-0.01-0.504-0.02-0.756-0.03c-0.213,0.912-0.427,1.823-0.641,2.734
		c-0.134,0.001-0.267,0.001-0.4,0.001c0-1.409,0-2.818,0-4.228c-0.203,0-0.409,0-0.611,0c0,3.75,0,7.501,0,11.25
		c-2.087-2.056-1.2-4.137-1.354-6.208c-0.151-2.066-0.061-4.133-0.076-6.198c-0.185,0.228-0.523,0.457-0.529,0.685
		c-0.062,2.15-0.065,4.301-0.084,6.452c0,0.664,0,1.327,0,1.991c-0.161,0.002-0.321,0.004-0.481,0.006
		c-0.104-0.305-0.21-0.611-0.315-0.917c-0.135-0.001-0.271-0.003-0.407-0.003c0,0.583,0,1.166,0,1.75
		c-0.278-0.001-0.557-0.004-0.834-0.007c0.221-1.035,0.441-2.07,0.661-3.105c-0.017-1.438-0.035-2.875-0.053-4.312h-0.179
		l-0.176-0.01c-0.303-0.248-0.604-0.496-0.907-0.743c-0.329-0.001-0.657-0.001-0.984-0.002c0,0.68,0,1.359,0,2.039
		c-0.158,0.001-0.315,0.001-0.474,0.003c-0.155-0.127-0.312-0.254-0.466-0.382c-0.127,0.001-0.253,0.002-0.379,0.005
		c0,2.586,0,5.173,0,7.76c-0.323,0-0.647,0-0.971,0c0-2.572,0-5.143,0-7.715c-0.077,0-0.154,0-0.231,0v25.995
		c0.274-0.755,0.558-1.534,0.891-2.449c0.764,2.57,1.465,4.931,2.168,7.291c0.229-0.257,0.627-0.513,0.664-0.771
		c0.394-2.75,0.729-5.5,1.067-8.146c2.663,3.236,0.673,6.635,2.021,9.999c0-4.007,0-8.013,0-12.019c0.316,0,0.633,0,0.949,0
		c0,3.854,0,7.707,0,11.561c0.306,0,0.61,0,0.915,0c0-1.912,0-3.824,0-5.736c0.248-0.002,0.496-0.002,0.746-0.003
		c0,1.012,0,2.021,0,3.032c0,1.004,0,2.007,0,3.012c0.51,0,1.022,0,1.535,0.001c0-3.521,0-7.042,0-10.563
		c0.481-0.001,0.966-0.002,1.447-0.002c0,2.808-0.003,5.616,0.006,8.423c0.001,0.323,0.085,0.646,0.13,0.969
		c0.204-0.02,0.406-0.041,0.609-0.063c0.036-0.76,0.02-1.521,0.14-2.281c0.036-0.229,0.45-0.455,0.69-0.683
		c0.006-0.65,0.013-1.302,0.02-1.952c0-1.208,0-2.416,0-3.624c0.052,0,0.104,0,0.154,0c0.292,1.207,0.584,2.415,0.874,3.622
		c0,1.338,0,2.676,0,4.014c0.23,0,0.461,0,0.693,0.002c0-2.637,0-5.273,0-7.91c0.18,0,0.363,0,0.544,0
		c0.324,3.357,0.647,6.714,0.973,10.071c0.021-0.001,0.04-0.001,0.061-0.001c0.389-3.045,0.775-6.088,1.163-9.131
		c0-1.159,0-2.318,0-3.478c0.107,0,0.215,0,0.322,0c0,1.159,0,2.318,0,3.476c0.089,1.479,0.177,2.955,0.267,4.433
		c0.14,0.003,0.279,0.003,0.419,0c0.011-0.058,0.021-0.114,0.032-0.171v-25.237C645.335,814.613,645.304,814.38,645.272,814.149z"/>
	<path opacity="0.6" fill-rule="evenodd" clip-rule="evenodd" fill="#396E75" d="M592.565,813.118
		c-0.103-0.002-0.205-0.003-0.309-0.004c-0.154,0.128-0.311,0.255-0.466,0.382c-0.158-0.001-0.315-0.002-0.474-0.003
		c0-0.68,0-1.359,0-2.039c-0.326,0.001-0.655,0.001-0.984,0.002c-0.303,0.247-0.604,0.495-0.906,0.743l-0.176,0.01h-0.18
		c-0.018,1.437-0.036,2.874-0.053,4.312c0.22,1.035,0.44,2.07,0.661,3.105c-0.277,0.002-0.556,0.005-0.833,0.007
		c0-0.583,0-1.166,0-1.75c-0.137,0-0.272,0.002-0.408,0.003c-0.105,0.305-0.211,0.611-0.315,0.917
		c-0.16-0.001-0.32-0.004-0.48-0.006c0-0.664,0-1.327,0-1.991c-0.02-2.15-0.023-4.301-0.085-6.452
		c-0.006-0.228-0.345-0.457-0.529-0.685c-0.016,2.065,0.075,4.132-0.076,6.198c-0.154,2.071,0.732,4.152-1.354,6.208
		c0-3.75,0-7.5,0-11.25c-0.202,0-0.407,0-0.611,0c0,1.409,0,2.818,0,4.228c-0.134,0-0.267,0-0.4-0.001
		c-0.214-0.912-0.428-1.822-0.641-2.734c-0.252,0.01-0.504,0.02-0.756,0.03c-0.063,1.986-0.126,3.972-0.188,5.958
		c0,1.481,0,2.962,0,4.442c-0.155,0-0.312,0-0.467,0.001c0-1.48,0-2.959,0-4.439c-0.023-0.188-0.047-0.376-0.069-0.564
		c-0.227-0.112-0.449-0.224-0.674-0.336c-0.144-2.69-0.286-5.381-0.429-8.073c-0.229-0.044-0.461-0.087-0.69-0.132
		c0,3.593,0,7.186,0,10.778c-0.51,0.003-1.02,0.007-1.528,0.011c-1.11-1.71,0.068-3.454-1.077-5.171c0,1.285,0,2.569,0,3.854
		c-0.502-0.117-0.613-0.237-0.623-0.355c-0.222-2.73-0.419-5.46-0.668-8.19c-0.023-0.255-0.374-0.507-0.571-0.76
		c-0.15,3.689-0.301,7.38-0.452,11.07c-0.344,0-0.685,0-1.028,0c0-2.097,0-4.193,0-6.29h-0.292
		c-0.032,0.231-0.063,0.464-0.096,0.696v25.237c0.011,0.057,0.021,0.113,0.032,0.171c0.14,0.003,0.279,0.003,0.419,0
		c0.09-1.478,0.178-2.954,0.267-4.433c0-1.157,0-2.316,0-3.476c0.107,0,0.215,0,0.322,0c0,1.159,0,2.318,0,3.478
		c0.388,3.043,0.774,6.086,1.163,9.131c0.021,0,0.04,0,0.061,0.001c0.325-3.357,0.648-6.714,0.973-10.071c0.182,0,0.364,0,0.544,0
		c0,2.637,0,5.273,0,7.91c0.232-0.002,0.464-0.002,0.693-0.002c0-1.338,0-2.676,0-4.014c0.29-1.207,0.582-2.415,0.874-3.622
		c0.051,0,0.103,0,0.154,0c0,1.208,0,2.416,0,3.624c0.008,0.65,0.014,1.302,0.02,1.952c0.24,0.228,0.654,0.454,0.691,0.683
		c0.119,0.76,0.103,1.521,0.139,2.281c0.204,0.021,0.406,0.043,0.609,0.063c0.045-0.322,0.129-0.646,0.13-0.969
		c0.01-2.807,0.006-5.615,0.006-8.423c0.481,0,0.966,0.001,1.447,0.002c0,3.521,0,7.042,0,10.563
		c0.513-0.001,1.025-0.001,1.536-0.001c0-1.005,0-2.008,0-3.012c0-1.011,0-2.021,0-3.032c0.249,0.001,0.497,0.001,0.745,0.003
		c0,1.912,0,3.824,0,5.736c0.305,0,0.609,0,0.916,0c0-3.854,0-7.707,0-11.561c0.316,0,0.633,0,0.948,0c0,4.006,0,8.012,0,12.019
		c1.349-3.364-0.641-6.763,2.021-9.999c0.339,2.646,0.674,5.396,1.067,8.146c0.037,0.258,0.435,0.514,0.665,0.771
		c0.583-1.96,1.168-3.927,1.785-6.007V813.118z"/>
	<polygon fill="#ACDDDA" points="624.454,851.875 636.845,823.697 631.251,823.697 631.251,804.82 624.454,804.82 	"/>
	<polygon fill="#ACDDDA" points="595.342,852.228 582.766,823.628 588.443,823.628 588.443,804.467 595.342,804.467 	"/>
	<g>
		<polygon fill="#F0F1F1" points="631.514,793.07 635.596,802.019 645.367,803.136 638.119,809.785 640.076,819.423 
			631.514,814.584 622.951,819.423 624.906,809.785 617.66,803.136 627.431,802.019 		"/>
	</g>
</g>
</svg>
