<?xml version="1.0" encoding="utf-8"?>
<!-- Generator: Adobe Illustrator 16.0.0, SVG Export Plug-In . SVG Version: 6.00 Build 0)  -->
<!DOCTYPE svg PUBLIC "-//W3C//DTD SVG 1.1//EN" "http://www.w3.org/Graphics/SVG/1.1/DTD/svg11.dtd">
<svg version="1.1" id="Calque_1" xmlns="http://www.w3.org/2000/svg" xmlns:xlink="http://www.w3.org/1999/xlink" x="0px" y="0px"
	 width="1218.9px" height="1644.09px" viewBox="0 0 1218.9 1644.09" enable-background="new 0 0 1218.9 1644.09"
	 xml:space="preserve">
<g>
	<path fill-rule="evenodd" clip-rule="evenodd" fill="#314F51" d="M574.7,809.728c0.229,0.002,0.456,0.003,0.683,0.005
		c1.324-5.595,0.117-11.213,1.124-16.826c0.106,0.252,0.215,0.503,0.323,0.754c0,4.975,0,9.949,0,14.923
		c0.4,0,0.802,0.001,1.201,0.001c0-4.973,0-9.95,0-14.924c0.003-0.397,0.004-0.795,0.004-1.193c0.493-0.068,0.987-0.136,1.481-0.204
		c0,2.23,0,4.459,0,6.687c0.256,0.002,0.512,0.003,0.768,0.004c0-1.544,0-3.087,0-4.631c0.222,0.001,0.444,0.002,0.669,0.002
		c0,5.298,0,10.595,0,15.893c0.285,0.001,0.572,0.001,0.858,0.002c0-3.311,0-6.622,0-9.933l0.341-0.029l0.343,0.027
		c0,4.5,0,9,0,13.5c0.104,0,0.208,0,0.315,0c0.45-4.57,0.901-9.139,1.352-13.709h0.334c0,3.313,0,6.626,0,9.939
		c0.392,0,0.782,0,1.174,0c0.173-5.831,0.345-11.663,0.517-17.494c0.227,0.4,0.626,0.799,0.652,1.201
		c0.286,4.314,0.511,8.629,0.763,12.943c0.013,0.188,0.139,0.376,0.712,0.562c0-2.03,0-4.06,0-6.089
		c1.308,2.712-0.038,5.468,1.23,8.17c0.582-0.006,1.164-0.011,1.746-0.017c0-5.676,0-11.354,0-17.032
		c0.263,0.07,0.525,0.138,0.789,0.209c0.162,4.253,0.326,8.507,0.489,12.758c0.257,0.178,0.512,0.354,0.77,0.531
		c0.026,0.297,0.053,0.594,0.079,0.892c0,2.338,0,4.676,0,7.015c0.177-0.001,0.354-0.001,0.532-0.002c0-2.339,0-4.68,0-7.02
		c0.072-3.138,0.145-6.276,0.216-9.415c0.289-0.016,0.575-0.031,0.863-0.047c0.243,1.44,0.487,2.88,0.731,4.321
		c0.153,0,0.304,0,0.457,0.001c0-2.227,0-4.453,0-6.68c0.233,0,0.469,0,0.699,0c0,5.926,0,11.853,0,17.779
		c2.384-3.249,1.37-6.538,1.546-9.811c0.174-3.265,0.07-6.531,0.088-9.795c0.211,0.36,0.598,0.723,0.604,1.083
		c0.071,3.398,0.073,6.797,0.097,10.195c0,1.049,0,2.097,0,3.146c0.184,0.004,0.367,0.008,0.549,0.01
		c0.12-0.483,0.24-0.966,0.36-1.449c0.154-0.002,0.311-0.004,0.465-0.005c0,0.922,0,1.842,0,2.765
		c0.317-0.002,0.635-0.006,0.953-0.01c-0.251-1.636-0.505-3.271-0.755-4.908c0.019-2.272,0.04-4.543,0.06-6.814h0.205l0.202-0.016
		c0.345-0.392,0.688-0.783,1.035-1.174c0.375-0.001,0.751-0.001,1.124-0.003c0,1.075,0,2.148,0,3.222
		c0.181,0.002,0.359,0.003,0.541,0.005c0.177-0.2,0.356-0.401,0.532-0.603c0.145,0.003,0.288,0.004,0.434,0.008
		c0,4.087,0,8.175,0,12.263c0.369,0,0.738,0,1.108,0c0-4.063,0-8.127,0-12.19c0.36,0,0.721,0,1.081,0c0,4.625,0,9.249,0,13.874
		c2.445-5.868,0.941-11.77,2.3-17.65c0,3.019,0,6.037,0,9.054c0,2.43,0,4.859,0,7.291c0.255,0.001,0.513,0.002,0.769,0.003
		c0-2.411,0-4.82,0-7.23c0.175-3.715,0.351-7.43,0.526-11.146c0.13-0.13,0.262-0.261,0.475-0.476
		c0.211,0.215,0.341,0.346,0.469,0.476c0,4.276,0,8.553,0,12.829c0.18,0.001,0.359,0.002,0.536,0.002c0-2.923,0-5.847,0-8.771
		c0.351,0,0.7-0.001,1.051-0.001c0,7.71,0,15.42,0,23.131c0.376,0.001,0.751,0.002,1.122,0.005c0-2.064,0-4.129,0-6.193
		c0.253,0,0.503-0.001,0.755-0.001c0,0.987,0,1.975,0,2.963c0.364,0,0.73,0,1.095,0.001c0-5.941,0-11.882,0-17.824
		c0.265,0,0.529,0,0.792,0c0.354,6.062,0.71,12.125,1.064,18.188c0.49,0.232,0.979,0.466,1.47,0.7
		c-0.002,2.989-0.004,5.98-0.005,8.97c-0.485,0.158-0.971,0.316-1.455,0.475c-0.242,3.613-0.507,7.225-0.722,10.836
		c-0.067,1.134-0.011,2.268-0.596,3.401c0-4.42,0-8.839,0-13.258c-0.368-0.004-0.736-0.009-1.103-0.013c0,1.762,0,3.521,0,5.281
		c-0.395,0-0.788,0-1.182,0c0-3.05,0-6.1,0-9.149c-0.251,0-0.501,0-0.752,0c0,0.363,0.016,0.726-0.001,1.089
		c-0.242,5.023-0.311,10.049-0.815,15.069c-0.219,2.194-1.337,4.38-2.099,6.733c-0.27-2.348-0.525-4.551-0.78-6.756
		c0-2.777,0-5.555,0-8.33c-0.204,0-0.408,0-0.614,0c0,2.775,0,5.553,0,8.327c-0.076,0.415-0.155,0.829-0.231,1.243
		c-0.293-0.002-0.586-0.003-0.878-0.004c0-2.717,0-5.435,0-8.15c-0.331,0-0.658-0.002-0.986-0.002c0,2.332,0,4.664,0,6.998
		c-0.259,0.002-0.521,0.004-0.781,0.007c-0.39-1.485-0.779-2.968-1.258-4.785c-0.872,4.062-1.674,7.793-2.476,11.522
		c-0.263-0.406-0.717-0.811-0.76-1.219c-0.449-4.346-0.833-8.69-1.219-12.873c-3.042,5.115-0.768,10.483-2.309,15.801
		c0-6.33,0-12.66,0-18.993c-0.36,0.001-0.725,0.001-1.083,0.001c0,6.09,0,12.178,0,18.268c-0.35,0-0.699,0-1.047,0.002
		c0-3.021,0-6.045,0-9.066c-0.284-0.002-0.566-0.002-0.852-0.004c0,1.598,0,3.195,0,4.791c0,1.586,0,3.173,0,4.759
		c-0.583,0.001-1.169,0.001-1.754,0.001c0-5.563,0-11.125,0-16.689c-0.55-0.001-1.104-0.003-1.653-0.003
		c0,4.437,0.004,8.875-0.007,13.31c-0.001,0.512-0.097,1.021-0.148,1.531c-0.232-0.031-0.463-0.066-0.696-0.1
		c-0.043-1.201-0.021-2.404-0.16-3.604c-0.041-0.361-0.514-0.719-0.787-1.078c-0.008-1.028-0.015-2.058-0.023-3.085
		c0-1.908,0-3.818,0-5.727c-0.058,0-0.118,0-0.176,0c-0.332,1.907-0.666,3.816-0.998,5.724c0,2.115,0,4.229,0,6.343
		c-0.264,0.001-0.527,0.001-0.791,0.002c0-4.166,0-8.333,0-12.5c-0.208,0-0.415,0-0.623,0c-0.37,5.307-0.739,10.61-1.11,15.916
		c-0.023-0.002-0.048-0.002-0.068-0.003c-0.445-4.81-0.888-9.618-1.329-14.429c0-1.831,0-3.662,0-5.494c-0.122,0-0.245,0-0.368,0
		c0,1.832,0,3.663,0,5.494c-0.103,2.334-0.201,4.668-0.305,7.003c-0.16,0.003-0.32,0.003-0.479,0
		c-0.422-3.165-0.844-6.329-1.266-9.493c-0.08,0-0.161-0.002-0.241-0.004c0,4.295,0,8.588,0,12.883c-0.225,0-0.451,0-0.679,0
		c0-3.959,0-7.92,0-11.878c-0.367-0.003-0.734-0.003-1.1-0.004c0,4.753,0,9.506,0,14.26c-0.372,0.002-0.74,0.005-1.111,0.005
		c0-0.83,0-1.657,0-2.486c-0.244-0.004-0.489-0.006-0.732-0.01c0,0.844,0,1.688,0,2.531c-0.379-0.002-0.757-0.004-1.135-0.006
		c0-2.354,0-4.71,0-7.064c-0.361,0-0.724,0.002-1.088,0.002c0,1.713,0,3.428,0,5.142c-0.37,0.001-0.741,0.001-1.112,0.003
		c0-3.672,0-7.343,0-11.014c-0.31,0-0.616,0-0.926,0V809.728z"/>
	<path opacity="0.6" fill-rule="evenodd" clip-rule="evenodd" fill="#396E75" d="M645.049,809.733
		c-1.325-5.595-0.118-11.213-1.123-16.826c-0.108,0.252-0.216,0.503-0.323,0.754c0,4.975,0,9.949,0,14.923
		c-0.401,0-0.802,0.001-1.203,0.001c0-4.973,0-9.95,0-14.924c-0.001-0.397-0.003-0.795-0.003-1.193
		c-0.494-0.068-0.988-0.136-1.481-0.204c0,2.23,0,4.459,0,6.687c-0.256,0.002-0.512,0.003-0.767,0.004c0-1.544,0-3.087,0-4.631
		c-0.222,0.001-0.445,0.002-0.669,0.002c0,5.298,0,10.595,0,15.893c-0.285,0.001-0.572,0.001-0.859,0.002c0-3.311,0-6.622,0-9.933
		l-0.341-0.029l-0.343,0.027c0,4.5,0,9,0,13.5c-0.104,0-0.209,0-0.315,0c-0.45-4.57-0.9-9.139-1.351-13.709h-0.334
		c0,3.313,0,6.626,0,9.939c-0.394,0-0.783,0-1.176,0c-0.172-5.831-0.343-11.663-0.516-17.494c-0.227,0.4-0.626,0.799-0.652,1.201
		c-0.285,4.314-0.511,8.629-0.763,12.943c-0.012,0.188-0.14,0.376-0.712,0.562c0-2.03,0-4.06,0-6.089
		c-1.309,2.712,0.038,5.468-1.231,8.17c-0.582-0.006-1.162-0.011-1.745-0.017c0-5.676,0-11.354,0-17.032
		c-0.263,0.07-0.525,0.138-0.788,0.209c-0.163,4.253-0.326,8.507-0.49,12.758c-0.257,0.178-0.512,0.354-0.769,0.531
		c-0.026,0.297-0.054,0.594-0.079,0.892c0,2.338,0,4.676,0,7.015c-0.179-0.001-0.357-0.001-0.534-0.002c0-2.339,0-4.68,0-7.02
		c-0.071-3.138-0.143-6.276-0.215-9.415c-0.288-0.016-0.575-0.031-0.863-0.047c-0.242,1.44-0.486,2.88-0.731,4.321
		c-0.152,0-0.304,0-0.457,0.001c0-2.227,0-4.453,0-6.68c-0.233,0-0.468,0-0.699,0c0,5.926,0,11.853,0,17.779
		c-2.384-3.249-1.369-6.538-1.547-9.811c-0.172-3.265-0.068-6.531-0.087-9.795c-0.211,0.36-0.598,0.723-0.604,1.083
		c-0.069,3.398-0.075,6.797-0.096,10.195c0,1.049,0,2.097,0,3.146c-0.185,0.004-0.368,0.008-0.55,0.01
		c-0.119-0.483-0.24-0.966-0.36-1.449c-0.154-0.002-0.311-0.004-0.466-0.005c0,0.922,0,1.842,0,2.765
		c-0.317-0.002-0.637-0.006-0.952-0.01c0.252-1.636,0.505-3.271,0.755-4.908c-0.018-2.272-0.04-4.543-0.06-6.814h-0.204
		l-0.202-0.016c-0.345-0.392-0.689-0.783-1.036-1.174c-0.375-0.001-0.75-0.001-1.125-0.003c0,1.075,0,2.148,0,3.222
		c-0.179,0.002-0.359,0.003-0.541,0.005c-0.176-0.2-0.355-0.401-0.532-0.603c-0.143,0.003-0.287,0.004-0.432,0.008
		c0,4.087,0,8.175,0,12.263c-0.369,0-0.738,0-1.108,0c0-4.063,0-8.127,0-12.19c-0.361,0-0.721,0-1.081,0c0,4.625,0,9.249,0,13.874
		c-0.325-0.781-0.578-1.563-0.779-2.344v23.458c0.19,0,0.383,0,0.573,0c0,2.332,0,4.664,0,6.998
		c0.261,0.002,0.521,0.004,0.781,0.007c0.392-1.485,0.78-2.968,1.259-4.785c0.872,4.062,1.675,7.793,2.476,11.522
		c0.263-0.406,0.718-0.811,0.76-1.219c0.449-4.346,0.832-8.69,1.219-12.873c3.041,5.115,0.769,10.483,2.31,15.801
		c0-6.33,0-12.66,0-18.993c0.36,0.001,0.722,0.001,1.083,0.001c0,6.09,0,12.178,0,18.268c0.35,0,0.697,0,1.046,0.002
		c0-3.021,0-6.045,0-9.066c0.283-0.002,0.566-0.002,0.852-0.004c0,1.598,0,3.195,0,4.791c0,1.586,0,3.173,0,4.759
		c0.583,0.001,1.169,0.001,1.755,0.001c0-5.563,0-11.125,0-16.689c0.549-0.001,1.102-0.003,1.652-0.003
		c0,4.437-0.004,8.875,0.007,13.31c0.002,0.512,0.098,1.021,0.147,1.531c0.234-0.031,0.464-0.066,0.698-0.1
		c0.04-1.201,0.021-2.404,0.158-3.604c0.042-0.361,0.515-0.719,0.788-1.078c0.008-1.028,0.015-2.058,0.022-3.085
		c0-1.908,0-3.818,0-5.727c0.06,0,0.119,0,0.177,0c0.333,1.907,0.667,3.816,0.999,5.724c0,2.115,0,4.229,0,6.343
		c0.262,0.001,0.526,0.001,0.791,0.002c0-4.166,0-8.333,0-12.5c0.205,0,0.415,0,0.621,0c0.371,5.307,0.741,10.61,1.112,15.916
		c0.022-0.002,0.044-0.002,0.068-0.003c0.444-4.81,0.886-9.618,1.329-14.429c0-1.831,0-3.662,0-5.494c0.122,0,0.244,0,0.368,0
		c0,1.832,0,3.663,0,5.494c0.102,2.334,0.201,4.668,0.304,7.003c0.16,0.003,0.32,0.003,0.479,0c0.422-3.165,0.844-6.329,1.265-9.493
		c0.08,0,0.16-0.002,0.241-0.004c0,4.295,0,8.588,0,12.883c0.226,0,0.451,0,0.678,0c0-3.959,0-7.92,0-11.878
		c0.367-0.003,0.735-0.003,1.102-0.004c0,4.753,0,9.506,0,14.26c0.371,0.002,0.739,0.005,1.11,0.005c0-0.83,0-1.657,0-2.486
		c0.245-0.004,0.489-0.006,0.732-0.01c0,0.844,0,1.688,0,2.531c0.379-0.002,0.757-0.004,1.135-0.006c0-2.354,0-4.71,0-7.064
		c0.362,0,0.723,0.002,1.088,0.002c0,1.713,0,3.428,0,5.142c0.37,0.001,0.74,0.001,1.113,0.003c0-3.672,0-7.343,0-11.014
		c0.309,0,0.615,0,0.925,0v-24.463C645.502,809.73,645.275,809.731,645.049,809.733z"/>
	<polygon fill="#ACDDDA" points="610.216,857.496 628.92,814.962 620.476,814.962 620.476,786.466 610.216,786.466 	"/>
</g>
</svg>
