<?xml version="1.0" encoding="utf-8"?>
<!-- Generator: Adobe Illustrator 16.0.0, SVG Export Plug-In . SVG Version: 6.00 Build 0)  -->
<!DOCTYPE svg PUBLIC "-//W3C//DTD SVG 1.1//EN" "http://www.w3.org/Graphics/SVG/1.1/DTD/svg11.dtd">
<svg version="1.1" id="Calque_1" xmlns="http://www.w3.org/2000/svg" xmlns:xlink="http://www.w3.org/1999/xlink" x="0px" y="0px"
	 width="1218.9px" height="1644.09px" viewBox="0 0 1218.9 1644.09" enable-background="new 0 0 1218.9 1644.09"
	 xml:space="preserve">
<g>
	
		<line fill="none" stroke="#396E75" stroke-width="3" stroke-miterlimit="10" x1="609.618" y1="807.428" x2="609.618" y2="832.566"/>
	<path fill="#FFFFFF" stroke="#000000" stroke-width="0.6352" stroke-miterlimit="10" d="M604.284,805.88L604.284,805.88"/>
	<polygon fill="#396E75" points="610.531,832.203 602.751,812.647 604.268,812.043 603.488,807.89 601.219,808.793 600.01,805.754 
		598.184,806.48 599.392,809.521 597.121,810.422 599.408,813.976 600.925,813.374 608.704,832.93 	"/>
	<path fill="#396E75" d="M615.89,805.585c-0.866-2.754-3.386-4.603-6.272-4.603c-2.744,0-5.141,1.683-6.114,4.211l1.883-0.75
		l0.177,0.939c0.787-1.48,2.324-2.434,4.055-2.434c2.021,0,3.789,1.297,4.396,3.225l8.192,26.074h-8.966h-7.497h-8.711l3.844-12.236
		l-1.152-2.897l-8.205,26.12h36.201L615.89,805.585z"/>
</g>
</svg>
