<?xml version="1.0" encoding="utf-8"?>
<!-- Generator: Adobe Illustrator 16.0.0, SVG Export Plug-In . SVG Version: 6.00 Build 0)  -->
<!DOCTYPE svg PUBLIC "-//W3C//DTD SVG 1.1//EN" "http://www.w3.org/Graphics/SVG/1.1/DTD/svg11.dtd">
<svg version="1.1" id="Calque_1" xmlns="http://www.w3.org/2000/svg" xmlns:xlink="http://www.w3.org/1999/xlink" x="0px" y="0px"
	 width="960px" height="960px" viewBox="0 0 960 960" enable-background="new 0 0 960 960" xml:space="preserve">
<g>
	<path fill="#2EA7C3" d="M480,634.279c85.205,0,154.279-69.072,154.279-154.28c0-85.205-69.074-154.278-154.279-154.278
		c-85.206,0-154.278,69.073-154.278,154.278C325.722,565.207,394.794,634.279,480,634.279z M480,455.778
		c13.377,0,24.222,10.845,24.222,24.222c0,13.378-10.845,24.223-24.222,24.223c-13.378,0-24.223-10.845-24.223-24.223
		C455.777,466.623,466.622,455.778,480,455.778z"/>
	<path fill="#2EA7C3" d="M473.95,936.014c0.065-0.002,0.056-0.004,0.25-0.004l1.169-0.016c3.122-0.039,6.263-0.08,9.422-0.119
		c3.159-0.082,6.335-0.225,9.532-0.342c12.779-0.586,25.84-1.691,39.111-3.412c26.535-3.447,53.896-9.473,81.361-18.385
		c27.455-8.918,54.996-20.797,81.745-35.805c26.739-15.011,52.729-33.096,76.954-54.293c24.218-21.188,46.795-45.346,66.707-72.225
		c19.885-26.88,37.27-56.361,51.092-87.923c6.924-15.768,13.041-32.013,18.18-48.655c5.123-16.648,9.324-33.67,12.549-50.941
		l0.617-3.237l0.541-3.251l1.078-6.509c0.684-4.347,1.25-8.713,1.861-13.079c0.484-4.379,1.049-8.754,1.455-13.149l0.588-6.595
		l0.283-3.301l0.211-3.305l0.418-6.618c0.08-1.083,0.125-2.23,0.168-3.386l0.131-3.448l0.246-6.882l0.076-6.104l0.039-3.052
		l0.021-1.994c0-0.011,0-0.022,0-0.032l-0.018-1.637l-0.084-6.645l-0.045-3.324l-0.121-3.325l-0.256-6.65
		c-0.781-17.739-2.715-35.471-5.602-53.063c-2.92-17.584-6.779-35.05-11.787-52.188c-4.979-17.146-10.949-34.003-17.859-50.443
		c-6.963-16.419-14.877-32.41-23.646-47.87c-8.75-15.473-18.498-30.327-28.942-44.59c-2.567-3.598-5.319-7.055-7.987-10.569
		c-1.33-1.762-2.75-3.45-4.121-5.176c-1.389-1.712-2.753-3.443-4.162-5.136c-5.661-6.75-11.406-13.415-17.418-19.811
		c-23.873-25.752-50.613-48.415-79.104-67.727c-14.283-9.608-29.01-18.368-44.067-26.241c-3.738-2.021-7.574-3.836-11.354-5.738
		c-3.797-1.874-7.65-3.606-11.465-5.403c-3.861-1.697-7.709-3.41-11.578-5.042c-1.943-0.795-3.888-1.589-5.828-2.382
		c-1.938-0.798-3.879-1.588-5.84-2.315c-31.219-12.083-63.243-20.509-95.074-25.403c-3.986-0.557-7.961-1.113-11.926-1.667
		c-3.977-0.451-7.939-0.929-11.898-1.342c-3.962-0.344-7.91-0.73-11.855-1.025c-1.973-0.126-3.942-0.251-5.909-0.377l-2.949-0.186
		c-0.978-0.064-1.958-0.125-2.995-0.156c-2.043-0.077-4.082-0.155-6.118-0.232l-3.054-0.111l-1.523-0.053l-1.364-0.021
		c-1.795-0.022-3.586-0.045-5.375-0.068l-2.681-0.034l-1.339-0.017l-1.184,0l-0.728,0.008c-3.878,0.058-7.743,0.07-11.597,0.175
		c-3.852,0.152-7.692,0.268-11.516,0.461c-30.601,1.598-60.229,6.243-88.203,13.371c-27.988,7.114-54.32,16.678-78.619,27.908
		c-12.148,5.623-23.816,11.622-34.923,18c-11.109,6.374-21.694,13.06-31.75,19.955c-2.498,1.749-5.016,3.434-7.446,5.208
		c-2.431,1.773-4.845,3.535-7.244,5.285c-4.723,3.598-9.393,7.134-13.857,10.796c-8.977,7.262-17.46,14.611-25.359,22.075
		c-0.994,0.927-1.983,1.85-2.969,2.77c-0.964,0.941-1.925,1.878-2.881,2.811c-1.905,1.875-3.826,3.702-5.669,5.576
		c-3.676,3.759-7.306,7.437-10.731,11.185c-3.495,3.684-6.764,7.448-10.016,11.103c-1.62,1.832-3.157,3.706-4.714,5.53
		c-1.543,1.837-3.101,3.63-4.558,5.476c-11.881,14.584-21.935,28.672-30.391,41.792c-8.458,13.123-15.32,25.277-20.914,36.038
		c-5.578,10.771-9.99,20.106-13.301,27.791c-0.835,1.918-1.622,3.724-2.358,5.416c-0.701,1.708-1.353,3.302-1.957,4.778
		c-1.202,2.955-2.239,5.432-2.985,7.461c-1.537,4.042-2.329,6.127-2.329,6.127l34.942,12.993l34.942,12.993
		c0,0,0.663-1.743,1.946-5.119c0.617-1.698,1.493-3.764,2.497-6.233c0.504-1.234,1.046-2.566,1.629-3.994
		c0.617-1.413,1.277-2.922,1.976-4.523c2.758-6.425,6.458-14.222,11.116-23.229c4.674-8.997,10.41-19.163,17.489-30.141
		c7.076-10.976,15.493-22.764,25.438-34.977c1.215-1.549,2.525-3.046,3.817-4.584c1.306-1.526,2.586-3.1,3.945-4.632
		c2.729-3.055,5.456-6.216,8.389-9.295c2.863-3.144,5.913-6.216,8.985-9.369c1.54-1.572,3.156-3.096,4.749-4.668
		c0.8-0.783,1.604-1.569,2.411-2.357c0.826-0.769,1.655-1.541,2.487-2.316c6.61-6.255,13.72-12.403,21.235-18.484
		c3.733-3.072,7.651-6.021,11.599-9.041c2.007-1.465,4.029-2.938,6.063-4.422c2.032-1.489,4.145-2.89,6.231-4.357
		c8.418-5.769,17.271-11.363,26.56-16.696c9.289-5.337,19.045-10.346,29.198-15.046c20.309-9.383,42.3-17.373,65.678-23.317
		c23.37-5.957,48.128-9.841,73.775-11.18c3.206-0.16,6.428-0.251,9.657-0.387c3.232-0.086,6.478-0.09,9.733-0.146l0.609-0.008
		c0.453,0,0.166-0.006,0.091-0.008c0.013,0,0.031,0,0.066,0.001l1.338,0.017l2.682,0.034c1.789,0.022,3.58,0.045,5.375,0.068
		l1.33,0.02l1.168,0.048l2.342,0.094c1.562,0.06,3.127,0.12,4.693,0.179c0.77,0.02,1.59,0.071,2.418,0.127l2.471,0.158
		c1.648,0.104,3.3,0.208,4.952,0.313c3.304,0.248,6.608,0.578,9.929,0.858c3.309,0.373,6.627,0.747,9.955,1.122
		c3.316,0.463,6.643,0.928,9.977,1.395c26.614,4.095,53.352,11.136,79.434,21.226c1.642,0.603,3.261,1.266,4.879,1.935
		c1.621,0.663,3.246,1.325,4.87,1.988c3.234,1.365,6.444,2.801,9.675,4.212c3.183,1.512,6.41,2.949,9.582,4.519
		c3.156,1.598,6.37,3.099,9.489,4.798c12.591,6.583,24.909,13.909,36.861,21.945c23.833,16.168,46.239,35.137,66.225,56.708
		c5.042,5.351,9.843,10.94,14.589,16.586c1.18,1.417,2.318,2.87,3.481,4.302c1.146,1.447,2.344,2.854,3.451,4.332
		c2.227,2.947,4.544,5.832,6.686,8.849c8.738,11.94,16.905,24.362,24.218,37.306c7.328,12.931,13.945,26.295,19.768,40.013
		c5.77,13.74,10.754,27.819,14.916,42.14c4.191,14.313,7.4,28.907,9.846,43.608c2.412,14.708,4.043,29.543,4.693,44.415l0.209,5.577
		l0.107,2.789l0.033,2.789l0.071,5.578l0.018,1.281c-0.001,0.155-0.003,0.381-0.005,0.403l-0.009,0.763l-0.039,3.053l-0.077,6.104
		l-0.209,5.312l-0.102,2.645c-0.027,0.876-0.062,1.762-0.131,2.699l-0.353,5.543l-0.173,2.771l-0.242,2.764l-0.49,5.523
		c-0.337,3.678-0.82,7.338-1.215,11.005c-0.521,3.649-0.988,7.304-1.561,10.937l-0.902,5.441l-0.448,2.721l-0.521,2.703
		c-10.635,57.813-35.021,111.82-68.402,156.74c-16.664,22.5-35.58,42.729-55.855,60.476c-20.281,17.753-42.044,32.881-64.4,45.435
		c-22.369,12.553-45.377,22.473-68.311,29.922c-22.941,7.441-45.793,12.483-67.991,15.365c-11.103,1.436-22.038,2.361-32.751,2.854
		c-2.68,0.096-5.346,0.195-7.994,0.291c-2.652,0.033-5.287,0.064-7.906,0.101l-0.982,0.011c0.022,0.002-0.185,0.004-0.29,0.006
		l-0.275-0.006l-2.143-0.025c-1.427-0.02-2.849-0.037-4.267-0.055l-2.123-0.027l-1.059-0.014l-0.529-0.007l-0.463-0.017
		c-1.222-0.049-2.44-0.098-3.655-0.148c-1.214-0.047-2.426-0.093-3.632-0.139l-1.817-0.072l-1.889-0.121
		c-2.516-0.16-5.014-0.317-7.495-0.475c-4.95-0.453-9.842-0.814-14.637-1.42c-4.81-0.492-9.515-1.23-14.164-1.859
		c-4.622-0.79-9.196-1.457-13.65-2.369c-17.875-3.35-34.309-7.883-49.237-12.823c-14.928-4.962-28.294-10.517-40.126-16.019
		c-23.665-11.063-41.085-22.061-52.678-29.873c-2.87-2.002-5.425-3.74-7.598-5.286c-2.155-1.573-3.971-2.896-5.431-3.962
		c-1.47-1.051-2.546-1.901-3.277-2.459c-0.727-0.559-1.098-0.844-1.098-0.844l37.006-48.496c0,0-57.993-22.898-122.857-64.031
		C91.877,629.771,30.245,584.45,30.245,584.45c24.38,103.915,84.339,194.121,166.321,257.071l0.78,1.208l0.016-0.021
		c0,0,0.443,0.338,1.314,1.006c0.873,0.666,2.161,1.678,3.914,2.938c1.746,1.272,3.914,2.854,6.49,4.73
		c2.597,1.849,5.645,3.934,9.08,6.318c13.851,9.339,34.675,22.486,62.99,35.725c14.157,6.586,30.158,13.225,48.028,19.17
		c17.869,5.924,37.551,11.336,58.935,15.352c5.332,1.08,10.796,1.9,16.329,2.828c5.556,0.768,11.186,1.631,16.929,2.229
		c5.734,0.715,11.573,1.166,17.487,1.693c2.96,0.188,5.942,0.377,8.943,0.568l2.255,0.141l2.345,0.096
		c1.573,0.063,3.152,0.119,4.734,0.182c1.583,0.055,3.172,0.113,4.766,0.172l0.594,0.02l0.529,0.006l1.059,0.016l2.124,0.025
		c1.417,0.02,2.84,0.035,4.266,0.055l2.144,0.027l0.537,0.006c0.05,0,0.082,0.002,0.127,0.002c0.124,0,0.247,0.002,0.37,0.002
		c0.047,0,0.092,0.002,0.126,0.002C473.834,936.016,473.891,936.014,473.95,936.014z"/>
</g>
</svg>
